<svg xmlns="http://www.w3.org/2000/svg" width="48" height="48" viewBox="0 0 48 48">
    <path data-name="Path 2840" d="m-16.734 22.909-.716-6.987a3.491 3.491 0 0 0-3.482-3.143h-5.937V9.5a3.5 3.5 0 0 0-3.5-3.5h-8.053a3.5 3.5 0 0 0-3.5 3.5v3.279h-5.937a3.491 3.491 0 0 0-3.482 3.143l-.716 6.987a3.488 3.488 0 0 0 1.474 3.214V38.5a3.5 3.5 0 0 0 3.5 3.5h25.376a3.5 3.5 0 0 0 3.5-3.5V26.123a3.49 3.49 0 0 0 1.473-3.214zM-38.922 9.5a.5.5 0 0 1 .5-.5h8.053a.5.5 0 0 1 .5.5v3.279h-9.053zm-9.434 6.728a.5.5 0 0 1 .5-.449h26.927a.5.5 0 0 1 .5.449l.715 6.985a.5.5 0 0 1-.394.541l-9.231 1.946v-1.4a3.5 3.5 0 0 0-3.5-3.5h-3.113a3.5 3.5 0 0 0-3.5 3.5v1.4l-9.225-1.95a.5.5 0 0 1-.4-.541zm16.017 8.08v5.779a.5.5 0 0 1-.5.5h-3.113a.5.5 0 0 1-.5-.5v-5.779a.5.5 0 0 1 .5-.5h3.113a.5.5 0 0 1 .5.5zM-21.707 39h-25.376a.5.5 0 0 1-.5-.5V27.053l8.131 1.719v1.315a3.5 3.5 0 0 0 3.5 3.5h3.113a3.5 3.5 0 0 0 3.5-3.5v-1.315l8.132-1.72V38.5a.5.5 0 0 1-.5.5z" style="fill:#FFFFFF" transform="translate(58.395)"/>
</svg>
