<svg id="certificates-t" xmlns="http://www.w3.org/2000/svg" width="48" height="48" viewBox="0 0 48 48">
    <defs>
        <style>
            .cls-2{fill:#313c4e}
        </style>
    </defs>
    <g id="Group_660" data-name="Group 660">
        <path id="Path_2759" data-name="Path 2759" class="cls-2" d="m42.421 24.185-1.2-1.7-.312-2.055a2.5 2.5 0 0 0-2.049-2.089l-2.047-.351-1.675-1.23a2.5 2.5 0 0 0-2.926-.028l-1.7 1.2-2.056.312a2.5 2.5 0 0 0-2.089 2.048l-.347 2.048-1.234 1.676a2.5 2.5 0 0 0-.028 2.924l1.2 1.7.312 2.057a2.5 2.5 0 0 0 2.047 2.086l.382.065v7.792a2.5 2.5 0 0 0 4.006 2l.884-.667.883.667a2.5 2.5 0 0 0 4.006-2v-7.721l.243-.037a2.5 2.5 0 0 0 2.087-2.049l.352-2.049 1.232-1.673a2.5 2.5 0 0 0 .029-2.926zM33.59 38.211l-1.89 1.426v-5.522l.344.254a2.5 2.5 0 0 0 2.923.025l.512-.362v5.6zm5.08-11.1a2.524 2.524 0 0 0-.446 1.054l-.311 1.81-1.817.275a2.5 2.5 0 0 0-1.066.431l-1.5 1.06-1.477-1.089a2.5 2.5 0 0 0-1.06-.451l-1.81-.311-.275-1.815A2.521 2.521 0 0 0 28.476 27l-1.06-1.5 1.084-1.471a2.5 2.5 0 0 0 .455-1.063l.311-1.81 1.815-.276a2.5 2.5 0 0 0 1.068-.43l1.5-1.06 1.478 1.087a2.511 2.511 0 0 0 1.061.453l1.812.31.276 1.817a2.516 2.516 0 0 0 .43 1.067l1.06 1.5z"/>
        <path id="Path_2760" data-name="Path 2760" class="cls-2" d="M18.252 10.5a1.5 1.5 0 0 0 0 3h11.5a1.5 1.5 0 0 0 0-3z"/>
        <path id="Path_2761" data-name="Path 2761" class="cls-2" d="M24.2 34.5H14.152a.5.5 0 0 1-.5-.5V8a.5.5 0 0 1 .5-.5h19.6a.5.5 0 0 1 .5.5v5.072a1.5 1.5 0 1 0 3 0V8a3.5 3.5 0 0 0-3.5-3.5h-19.6a3.5 3.5 0 0 0-3.5 3.5v26a3.5 3.5 0 0 0 3.5 3.5H24.2a1.5 1.5 0 0 0 0-3z"/>
    </g>
</svg>
