<?xml version="1.0" encoding="UTF-8"?> <svg xmlns="http://www.w3.org/2000/svg" width="2104" height="184" viewBox="0 0 2638 184" fill="none"><path d="M165.818 95.2801C165.818 91.2119 164.083 87.6354 158.221 87.6354C155.873 87.5898 153.551 88.1403 151.473 89.2357L152.437 92.5037C153.918 91.6246 155.603 91.1493 157.325 91.1252C160.304 91.1252 160.795 92.8122 160.795 93.9015V94.1522C154.298 94.1522 150.191 96.3887 150.191 100.968C150.189 101.706 150.337 102.436 150.627 103.114C150.918 103.792 151.344 104.404 151.879 104.912C152.415 105.419 153.048 105.812 153.741 106.065C154.434 106.319 155.171 106.428 155.908 106.386C156.898 106.422 157.884 106.231 158.789 105.829C159.695 105.426 160.496 104.822 161.133 104.062H161.239C161.239 104.062 161.981 107.157 166.059 105.99C165.844 104.558 165.748 103.11 165.77 101.662L165.818 95.2801ZM160.95 99.5796C160.955 99.9047 160.916 100.229 160.834 100.544C160.6 101.223 160.157 101.811 159.568 102.223C158.979 102.636 158.275 102.851 157.556 102.838C157.235 102.865 156.912 102.823 156.609 102.713C156.307 102.604 156.031 102.43 155.802 102.203C155.573 101.977 155.396 101.704 155.282 101.402C155.169 101.101 155.123 100.778 155.146 100.457C155.146 97.9986 157.865 97.3142 160.93 97.3334L160.95 99.5796Z" fill="#CED2D6"></path><path d="M64.7407 82.1021C64.7407 82.1021 68.9824 99.4543 69.6572 102.289C70.4477 105.585 71.8648 106.79 75.9715 105.981L78.6225 95.2127C79.2877 92.5327 79.7408 90.6239 80.165 87.9054H80.2421C80.549 90.3614 80.9801 92.8003 81.5339 95.2127C81.5339 95.2127 82.6136 100.11 83.163 102.674C83.7125 105.238 85.255 106.858 89.2749 105.981L95.5892 82.1021H90.4896L88.3398 92.4267C87.7518 95.4247 87.2312 97.7769 86.8263 100.524H86.7492C86.3829 97.8059 85.9201 95.5501 85.3321 92.6195L83.057 82.1021H77.7549L75.3449 92.3592C74.6604 95.4729 74.0242 97.989 73.6193 100.64H73.5518C73.1373 98.1433 72.5878 94.9813 71.9901 91.9639C71.9901 91.9639 70.5634 84.6278 70.0621 82.1021" fill="#CED2D6"></path><path d="M110.049 95.2801C110.049 91.2119 108.314 87.6354 102.453 87.6354C100.104 87.5898 97.7827 88.1403 95.7048 89.2357L96.6689 92.5037C98.1489 91.6233 99.8345 91.1479 101.556 91.1252C104.535 91.1252 105.027 92.8122 105.027 93.9015V94.1522C98.5294 94.1522 94.4227 96.3887 94.4227 100.968C94.4202 101.706 94.5686 102.436 94.8589 103.114C95.1492 103.792 95.5752 104.404 96.1106 104.912C96.6461 105.419 97.2798 105.812 97.9726 106.065C98.6654 106.319 99.4028 106.428 100.139 106.386C101.13 106.422 102.115 106.231 103.021 105.829C103.926 105.426 104.728 104.822 105.364 104.062H105.47C105.47 104.062 106.213 107.157 110.29 105.99C110.071 104.558 109.974 103.11 110.001 101.662L110.049 95.2801ZM105.229 99.5603C105.236 99.8861 105.194 100.211 105.104 100.524C104.872 101.203 104.43 101.791 103.843 102.203C103.256 102.615 102.553 102.831 101.836 102.819C101.515 102.846 101.192 102.803 100.889 102.694C100.586 102.584 100.311 102.41 100.082 102.184C99.8527 101.958 99.6754 101.684 99.5622 101.383C99.4489 101.081 99.4025 100.759 99.4259 100.438C99.4259 97.9793 102.135 97.2949 105.21 97.3141L105.229 99.5603Z" fill="#CED2D6"></path><path d="M118.138 100.91V82.1021H113.289V105.981H118.138" fill="#CED2D6"></path><path d="M181.57 82.1021V99.7146C181.57 102.144 182.023 103.85 183.006 104.882C183.526 105.388 184.144 105.782 184.822 106.04C185.5 106.299 186.224 106.416 186.949 106.386C188.138 106.391 189.321 106.216 190.458 105.865L190.4 102.076C189.797 102.22 189.179 102.291 188.559 102.289C186.901 102.289 186.351 101.238 186.351 99.0494V92.3013H190.574V87.7512H186.351V82.1021" fill="#CED2D6"></path><path d="M169.057 88.0401V105.98H174.05V96.7934C174.046 96.3504 174.085 95.9082 174.166 95.4727C174.317 94.5509 174.805 93.718 175.535 93.1356C176.266 92.5532 177.186 92.2626 178.119 92.3203C178.603 92.323 179.087 92.3649 179.565 92.4457V87.7509C179.201 87.6696 178.829 87.6308 178.456 87.6352C177.348 87.6737 176.28 88.0605 175.404 88.7406C174.529 89.4208 173.889 90.3597 173.578 91.4238H173.443V88.0401" fill="#CED2D6"></path><path d="M121.531 88.0401V105.98H126.351V95.4631C126.339 94.9615 126.417 94.4619 126.582 93.9881C126.787 93.3499 127.18 92.7887 127.71 92.379C128.24 91.9692 128.882 91.7303 129.552 91.6938C131.48 91.6938 132.444 93.3519 132.444 95.7523V105.98H137.264V95.3763C137.262 94.8839 137.33 94.3938 137.466 93.9206C137.656 93.2982 138.038 92.752 138.557 92.3605C139.077 91.9691 139.708 91.7525 140.358 91.742C142.344 91.742 143.308 93.3711 143.308 96.1957V106.029H148.176V95.4245C148.176 89.8525 145.352 87.6449 142.151 87.6449C140.904 87.6221 139.676 87.9566 138.613 88.6089C137.746 89.2096 137.014 89.9844 136.464 90.884H136.396C136.004 89.9035 135.319 89.0684 134.433 88.4936C133.548 87.9187 132.506 87.6324 131.451 87.6738C130.397 87.6207 129.349 87.8634 128.426 88.3745C127.502 88.8855 126.74 89.6446 126.226 90.5659H126.158V88.0401" fill="#CED2D6"></path><path d="M216.776 85.3988C217.171 85.4451 217.57 85.3571 217.909 85.149C218.248 84.941 218.508 84.6249 218.646 84.2516L219.61 73.4836C219.61 72.4232 218.366 71.5555 216.795 71.5555C215.223 71.5555 213.99 72.4232 213.99 73.4836L214.954 84.2516C215.05 84.8975 215.85 85.3988 216.814 85.3988" fill="#CED2D6"></path><path d="M210.963 88.7632C211.201 88.4448 211.324 88.0548 211.312 87.6572C211.3 87.2596 211.153 86.8779 210.895 86.5749L202.045 80.3666C201.081 79.8364 199.751 80.4823 198.961 81.8415C198.17 83.2008 198.315 84.7336 199.24 85.2445L209.035 89.8043C209.426 89.87 209.828 89.8033 210.177 89.6148C210.527 89.4262 210.803 89.1265 210.963 88.7632" fill="#CED2D6"></path><path d="M222.598 88.7632C222.758 89.1265 223.034 89.4262 223.384 89.6148C223.733 89.8033 224.135 89.87 224.526 89.8043L234.33 85.2445C235.294 84.7047 235.381 83.1912 234.6 81.8415C233.819 80.4919 232.479 79.8364 231.515 80.3666L222.666 86.5749C222.411 86.8795 222.266 87.2606 222.254 87.6574C222.242 88.0541 222.363 88.4435 222.598 88.7632" fill="#CED2D6"></path><path d="M216.776 98.8468C217.171 98.8005 217.57 98.8884 217.909 99.0965C218.248 99.3046 218.508 99.6206 218.646 99.9939L219.61 110.762C219.61 111.822 218.366 112.69 216.795 112.69C215.223 112.69 213.99 111.813 213.99 110.762L214.954 99.9939C215.05 99.348 215.85 98.8468 216.814 98.8468" fill="#CED2D6"></path><path d="M222.598 95.492C222.755 95.1265 223.031 94.8248 223.381 94.6358C223.731 94.4468 224.134 94.3817 224.526 94.4509L234.33 99.0107C235.294 99.5409 235.381 101.054 234.6 102.414C233.819 103.773 232.479 104.38 231.515 103.879L222.666 97.6321C222.41 97.3283 222.264 96.9469 222.251 96.5497C222.239 96.1525 222.361 95.7629 222.598 95.4438" fill="#CED2D6"></path><path d="M210.963 95.4825C211.201 95.8009 211.324 96.1908 211.312 96.5885C211.3 96.9861 211.153 97.3677 210.895 97.6708L202.045 103.879C201.081 104.409 199.751 103.763 198.961 102.414C198.17 101.064 198.315 99.5217 199.24 99.0011L209.035 94.451C209.426 94.38 209.831 94.4444 210.181 94.6336C210.532 94.8228 210.807 95.1255 210.963 95.4921" fill="#CED2D6"></path><path d="M559.611 117.147H552.922C552.715 116.037 552.392 115.255 551.952 114.814C551.236 114.098 550.012 113.726 548.327 113.726C546.642 113.726 545.512 114.003 544.879 114.56C544.633 114.773 544.439 115.039 544.31 115.338C544.182 115.637 544.123 115.962 544.137 116.287C544.137 117.302 545.547 118.114 548.335 118.736C550.664 119.206 552.966 119.8 555.232 120.515C555.598 120.654 555.922 120.77 556.155 120.887C558.995 122.226 560.4 124.264 560.4 126.989C560.4 130.319 559.017 132.746 556.271 134.271C555.922 134.456 555.598 134.616 555.232 134.78C553.27 135.581 551.165 135.974 549.047 135.934C545.564 135.934 542.749 135.312 540.603 134.085C539.35 133.386 538.308 132.363 537.585 131.122C536.89 129.841 536.543 128.4 536.577 126.942H543.59C543.564 127.478 543.668 128.013 543.893 128.5C544.118 128.988 544.458 129.413 544.883 129.74C545.745 130.41 547.193 130.76 549.245 130.76C550.788 130.76 551.938 130.436 552.693 129.788C552.961 129.587 553.178 129.326 553.328 129.026C553.477 128.726 553.555 128.396 553.555 128.06C553.555 126.972 552.176 126.117 549.426 125.517C545.318 124.653 542.736 123.919 541.667 123.409C538.853 122.113 537.469 120.062 537.469 117.237C537.412 115.105 538.199 113.037 539.659 111.485C541.504 109.52 544.271 108.548 547.943 108.548C550.961 108.548 553.387 108.98 555.211 109.843C555.362 109.906 555.506 109.984 555.642 110.077C556.883 110.719 557.914 111.706 558.611 112.918C559.306 114.217 559.65 115.674 559.611 117.147Z" fill="#CED2D6"></path><path d="M556.034 100.77C556.043 100.646 556.011 100.523 555.943 100.42C555.876 100.309 555.77 100.227 555.646 100.191C555.504 100.157 555.36 100.133 555.215 100.117H554.155V101.413H555.215C555.436 101.423 555.654 101.359 555.836 101.232C555.901 101.174 555.952 101.103 555.987 101.023C556.021 100.943 556.037 100.857 556.034 100.77V100.77ZM556.59 100.074C556.726 100.253 556.799 100.472 556.797 100.696C556.799 100.851 556.77 101.005 556.71 101.149C556.651 101.292 556.563 101.422 556.452 101.53C556.212 101.77 555.89 101.911 555.551 101.923C555.688 101.976 555.813 102.054 555.922 102.152L556.564 103.015L557.073 103.879H556.241L555.849 103.188C555.68 102.851 555.464 102.54 555.206 102.264C555.179 102.236 555.147 102.212 555.112 102.195L554.56 102.035H554.129V103.879H553.435V99.5215H554.935C555.025 99.5215 555.12 99.5431 555.189 99.5431C555.469 99.5353 555.749 99.5733 556.017 99.6554C556.253 99.7197 556.457 99.8689 556.59 100.074V100.074Z" fill="#CED2D6"></path><path d="M558.551 101.647C558.559 101.055 558.41 100.473 558.12 99.9579C557.827 99.4353 557.396 99.0035 556.875 98.7098C556.371 98.4364 555.809 98.2883 555.237 98.2779V98.2779C554.664 98.2878 554.102 98.4359 553.599 98.7098C553.075 99.0022 552.642 99.4342 552.349 99.9579C552.052 100.471 551.895 101.053 551.892 101.647C551.897 102.231 552.055 102.804 552.349 103.309C552.623 103.82 553.033 104.245 553.534 104.536C554.041 104.824 554.615 104.973 555.198 104.968V104.968C555.78 104.971 556.354 104.822 556.862 104.536C557.377 104.252 557.8 103.826 558.081 103.309C558.383 102.807 558.545 102.233 558.551 101.647ZM559.219 101.647C559.22 102.344 559.037 103.029 558.689 103.633C558.36 104.265 557.846 104.781 557.215 105.11C556.614 105.466 555.927 105.651 555.228 105.646V105.646C554.531 105.652 553.845 105.467 553.245 105.11C552.612 104.783 552.095 104.267 551.767 103.633C551.417 103.03 551.234 102.344 551.237 101.647C551.228 100.933 551.411 100.231 551.767 99.6124C552.113 98.9834 552.634 98.4688 553.267 98.1311C553.87 97.8023 554.542 97.6203 555.228 97.5999V97.5999C555.916 97.6103 556.59 97.7929 557.189 98.1311C557.833 98.4596 558.362 98.9762 558.707 99.6124C559.054 100.233 559.231 100.935 559.219 101.647V101.647Z" fill="#CED2D6"></path><path d="M519.973 68.9788L538.918 100.606H519.973H508.482L490.396 70.3911L476.693 47.5272L490.396 39.274L499.025 34.0741L519.973 68.9788Z" fill="#CED2D6"></path><path d="M533.706 122.567V135.523H527.426V134.089C525.23 135.526 522.664 136.289 520.042 136.287H519.973C516.381 136.224 512.957 134.749 510.438 132.181C507.92 129.612 506.509 126.156 506.509 122.556C506.509 118.956 507.92 115.499 510.438 112.931C512.957 110.363 516.381 108.888 519.973 108.824H520.042C522.664 108.821 525.23 109.583 527.426 111.018V109.515H533.706V122.567ZM527.409 124V121.133C527.073 119.42 526.156 117.876 524.813 116.763C523.47 115.651 521.785 115.038 520.042 115.03H519.973C518.007 115.077 516.137 115.893 514.762 117.303C513.388 118.714 512.619 120.606 512.619 122.577C512.619 124.548 513.388 126.441 514.762 127.851C516.137 129.262 518.007 130.077 519.973 130.125H520.042C521.789 130.115 523.48 129.5 524.826 128.384C526.172 127.267 527.09 125.719 527.426 124H527.409Z" fill="#CED2D6"></path><path d="M504.146 122.567V135.523H497.848V134.089C495.651 135.523 493.086 136.286 490.464 136.288H490.395C486.803 136.224 483.379 134.749 480.861 132.181C478.342 129.612 476.931 126.156 476.931 122.556C476.931 118.956 478.342 115.499 480.861 112.931C483.379 110.363 486.803 108.888 490.395 108.824H490.464C493.086 108.824 495.651 109.586 497.848 111.018V100.605H504.146V122.567ZM497.848 124.001V121.133C497.512 119.417 496.592 117.871 495.246 116.758C493.9 115.645 492.21 115.035 490.464 115.03H490.395C488.429 115.077 486.559 115.893 485.185 117.304C483.81 118.714 483.041 120.607 483.041 122.577C483.041 124.548 483.81 126.441 485.185 127.851C486.559 129.262 488.429 130.077 490.395 130.125H490.464C492.212 130.115 493.902 129.5 495.248 128.384C496.594 127.267 497.513 125.719 497.848 124.001V124.001Z" fill="#CED2D6"></path><path d="M490.395 88.1671L497.822 100.605H490.395H467.412L450.529 72.451L449.792 71.2244L450.529 70.7839L472.145 57.7454L490.395 88.1671Z" fill="#CED2D6"></path><path d="M474.292 108.833H467.438V135.532H474.292V108.833Z" fill="#CED2D6"></path><path d="M474.292 100.744H467.438V106.777H474.292V100.744Z" fill="#CED2D6"></path><path d="M464.309 122.567V135.523H458.003V134.089C455.798 135.524 453.226 136.287 450.598 136.288H450.516C446.923 136.224 443.499 134.749 440.981 132.181C438.463 129.612 437.052 126.156 437.052 122.556C437.052 118.956 438.463 115.499 440.981 112.931C443.499 110.363 446.923 108.888 450.516 108.824H450.585C453.213 108.823 455.785 109.585 457.99 111.018V100.605H464.309V122.567ZM458.011 124.001V121.133C457.673 119.414 456.75 117.866 455.399 116.753C454.049 115.64 452.355 115.031 450.606 115.03H450.516C448.549 115.077 446.679 115.893 445.305 117.304C443.931 118.714 443.161 120.607 443.161 122.577C443.161 124.548 443.931 126.441 445.305 127.851C446.679 129.262 448.549 130.077 450.516 130.125H450.585C452.338 130.122 454.036 129.511 455.388 128.394C456.741 127.277 457.665 125.724 458.003 124.001H458.011Z" fill="#CED2D6"></path><path d="M450.529 90.2016L456.757 100.606H450.529H426.326L422.912 94.8962L445.266 81.4387L450.529 90.2016Z" fill="#CED2D6"></path><path d="M434.425 122.567V135.523H428.128V134.089C425.921 135.522 423.348 136.286 420.718 136.287H420.649C417.056 136.224 413.632 134.749 411.114 132.181C408.596 129.612 407.185 126.156 407.185 122.556C407.185 118.956 408.596 115.499 411.114 112.931C413.632 110.363 417.056 108.888 420.649 108.824H420.718C423.347 108.824 425.921 109.586 428.128 111.018V109.515H434.425V122.567ZM428.128 124V121.133C427.788 119.413 426.864 117.865 425.513 116.753C424.162 115.64 422.467 115.031 420.718 115.03H420.649C418.683 115.077 416.812 115.893 415.438 117.303C414.064 118.714 413.295 120.606 413.295 122.577C413.295 124.548 414.064 126.441 415.438 127.851C416.812 129.262 418.683 130.077 420.649 130.125H420.718C422.469 130.12 424.165 129.507 425.516 128.39C426.867 127.273 427.79 125.722 428.128 124V124Z" fill="#CED2D6"></path><path d="M737.837 103.564C737.627 101.774 737.728 99.1658 737.728 97.8581L740.458 67.0706H750.493L747.762 98.1299C747.179 104.871 749.808 109.643 756.529 109.643C763.351 109.643 766.976 104.817 767.551 98.8383L770.445 67.0693H780.526L777.741 98.4098C776.59 110.515 768.609 119.53 755.689 119.53C745.607 119.53 739.096 113.022 737.837 103.564ZM784.617 93.1405C785.932 78.3728 795.912 66.097 813.079 66.097C817.645 66.097 822.002 67.1324 826.319 69.9581L825.16 82.1717C821.223 76.9016 816.494 76.092 812.138 76.092C801.426 76.092 795.546 83.534 794.706 92.9298C793.912 102.154 798.642 109.596 809.042 109.596C813.562 109.596 818.338 108.288 823.379 103.244L822.274 115.784C817.389 118.447 812.823 119.638 808.257 119.638C791.183 119.638 783.366 106.982 784.617 93.1405ZM834.401 67.0693H844.428L840.749 108.88H855.139C856.19 108.88 859.604 108.834 860.546 108.834C860.499 109.324 859.605 118.44 859.605 118.44H829.828L834.401 67.0693ZM889.328 64.7419H888.596L861.083 118.447H871.794L875.621 110.297H895.052L897.472 118.447H908.074L889.345 64.7407L889.328 64.7419ZM886.778 86.2418C887.097 85.5334 887.353 84.6149 887.509 84.1244H887.672C887.719 84.7783 887.828 85.5412 888.038 86.2963C888.559 88.6317 892.503 101.616 892.503 101.616H879.785C879.785 101.616 886.614 86.6231 886.778 86.2418Z" fill="#CED2D6"></path><path fill-rule="evenodd" clip-rule="evenodd" d="M1171.51 107.791C1161.68 114.996 1147.42 118.84 1135.15 118.84C1117.94 118.84 1102.45 112.514 1090.73 101.992C1089.81 101.164 1090.63 100.037 1091.74 100.681C1104.38 107.996 1120.03 112.397 1136.18 112.397C1147.08 112.397 1159.06 110.156 1170.08 105.506C1171.75 104.803 1173.14 106.59 1171.51 107.791Z" fill="#CED2D6"></path><path fill-rule="evenodd" clip-rule="evenodd" d="M1175.6 103.141C1174.35 101.545 1167.29 102.387 1164.12 102.761C1163.16 102.878 1163.01 102.043 1163.88 101.443C1169.5 97.5105 1178.73 98.6454 1179.8 99.9634C1180.88 101.289 1179.52 110.478 1174.24 114.864C1173.43 115.538 1172.65 115.179 1173.02 114.286C1174.2 111.342 1176.86 104.745 1175.6 103.141Z" fill="#CED2D6"></path><path fill-rule="evenodd" clip-rule="evenodd" d="M1164.34 73.6839V69.8617C1164.34 69.2832 1164.79 68.8951 1165.32 68.8951H1182.53C1183.09 68.8951 1183.53 69.2905 1183.53 69.8617V73.1347C1183.52 73.6839 1183.06 74.4015 1182.23 75.5364L1173.31 88.1966C1176.63 88.1161 1180.12 88.6066 1183.13 90.2908C1183.81 90.6715 1183.99 91.228 1184.04 91.7772V95.8557C1184.04 96.4122 1183.43 97.0638 1182.78 96.727C1177.48 93.9665 1170.44 93.6663 1164.59 96.7563C1163.99 97.0785 1163.36 96.4341 1163.36 95.8776V92.0042C1163.36 91.3818 1163.37 90.32 1164 89.3755L1174.33 74.6431H1165.34C1164.79 74.6431 1164.34 74.255 1164.34 73.6839Z" fill="#CED2D6"></path><path fill-rule="evenodd" clip-rule="evenodd" d="M1101.54 97.5323H1096.3C1095.8 97.4957 1095.4 97.1223 1095.37 96.6463V69.9275C1095.37 69.3929 1095.82 68.9682 1096.38 68.9682H1101.26C1101.77 68.9902 1102.17 69.3783 1102.21 69.8615V73.3543H1102.31C1103.58 69.9787 1105.98 68.4044 1109.2 68.4044C1112.48 68.4044 1114.53 69.9787 1116 73.3543C1117.27 69.9787 1120.15 68.4044 1123.24 68.4044C1125.43 68.4044 1127.83 69.3051 1129.3 71.326C1130.96 73.5739 1130.62 76.8397 1130.62 79.7027L1130.61 96.5658C1130.61 97.1003 1130.16 97.5323 1129.6 97.5323H1124.37C1123.85 97.4957 1123.43 97.0784 1123.43 96.5658V82.4046C1123.43 81.2769 1123.53 78.4652 1123.28 77.3961C1122.89 75.6022 1121.72 75.097 1120.2 75.097C1118.93 75.097 1117.61 75.939 1117.07 77.2863C1116.53 78.6336 1116.58 80.8889 1116.58 82.4046V96.5658C1116.58 97.1003 1116.14 97.5323 1115.58 97.5323H1110.34C1109.81 97.4957 1109.4 97.0784 1109.4 96.5658L1109.39 82.4046C1109.39 79.4244 1109.89 75.0384 1106.17 75.0384C1102.4 75.0384 1102.55 79.3146 1102.55 82.4046V96.5658C1102.55 97.1003 1102.1 97.5323 1101.54 97.5323Z" fill="#CED2D6"></path><path fill-rule="evenodd" clip-rule="evenodd" d="M1198.35 68.4044C1206.12 68.4044 1210.33 75.0384 1210.33 83.4736C1210.33 91.6233 1205.68 98.0888 1198.35 98.0888C1190.72 98.0888 1186.56 91.4549 1186.56 83.188C1186.56 74.87 1190.77 68.4044 1198.35 68.4044ZM1198.4 73.8595C1194.53 73.8595 1194.29 79.0876 1194.29 82.346C1194.29 85.6117 1194.24 92.5825 1198.35 92.5825C1202.41 92.5825 1202.6 86.959 1202.6 83.5322C1202.6 81.2769 1202.51 78.5824 1201.82 76.4442C1201.23 74.5844 1200.06 73.8595 1198.4 73.8595Z" fill="#CED2D6"></path><path fill-rule="evenodd" clip-rule="evenodd" d="M1220.41 97.5323H1215.19C1214.67 97.4957 1214.25 97.0784 1214.25 96.5658L1214.24 69.8396C1214.29 69.349 1214.72 68.9682 1215.25 68.9682H1220.11C1220.56 68.9902 1220.94 69.2977 1221.04 69.7151V73.8009H1221.14C1222.6 70.1471 1224.66 68.4044 1228.28 68.4044C1230.63 68.4044 1232.92 69.2465 1234.39 71.553C1235.76 73.6911 1235.76 77.2863 1235.76 79.8711V96.6903C1235.7 97.1589 1235.27 97.5323 1234.75 97.5323H1229.5C1229.02 97.4957 1228.62 97.1443 1228.57 96.6903V82.1776C1228.57 79.256 1228.91 74.9798 1225.29 74.9798C1224.02 74.9798 1222.85 75.8292 1222.26 77.1179C1221.53 78.7508 1221.43 80.3763 1221.43 82.1776V96.5658C1221.42 97.1003 1220.97 97.5323 1220.41 97.5323" fill="#CED2D6"></path><path fill-rule="evenodd" clip-rule="evenodd" d="M1150.62 84.7697C1150.62 86.798 1150.67 88.4894 1149.64 90.2907C1148.81 91.7551 1147.48 92.6558 1146.02 92.6558C1144 92.6558 1142.83 91.1327 1142.83 88.8848C1142.83 84.4475 1146.83 83.6421 1150.62 83.6421V84.7697ZM1155.9 97.4592C1155.56 97.7667 1155.06 97.7887 1154.66 97.5836C1152.93 96.1485 1152.61 95.4822 1151.66 94.1129C1148.79 97.0272 1146.75 97.8985 1143.02 97.8985C1138.61 97.8985 1135.19 95.1966 1135.19 89.7855C1135.19 85.5605 1137.48 82.6829 1140.77 81.277C1143.61 80.0322 1147.58 79.8125 1150.62 79.4684V78.7947C1150.62 77.5573 1150.72 76.0928 1149.98 75.0238C1149.35 74.0646 1148.12 73.6692 1147.04 73.6692C1145.04 73.6692 1143.27 74.687 1142.83 76.7958C1142.74 77.2644 1142.4 77.7257 1141.92 77.7477L1136.84 77.2058C1136.42 77.1106 1135.94 76.7665 1136.06 76.1148C1137.23 69.9934 1142.8 68.1482 1147.78 68.1482C1150.33 68.1482 1153.66 68.8218 1155.67 70.7403C1158.22 73.1054 1157.97 76.2612 1157.97 79.6954V87.8084C1157.97 90.2468 1158.99 91.3158 1159.95 92.6338C1160.28 93.1024 1160.35 93.6662 1159.92 94.0177C1158.86 94.9037 1156.96 96.5512 1155.91 97.4738L1155.9 97.4591" fill="#CED2D6"></path><path fill-rule="evenodd" clip-rule="evenodd" d="M1081.95 84.7697C1081.95 86.798 1082 88.4894 1080.97 90.2907C1080.14 91.7551 1078.82 92.6558 1077.35 92.6558C1075.34 92.6558 1074.17 91.1327 1074.17 88.8848C1074.17 84.4475 1078.17 83.6421 1081.95 83.6421V84.7697ZM1087.23 97.4592C1086.89 97.7667 1086.39 97.7887 1086 97.5836C1084.26 96.1485 1083.95 95.4822 1082.99 94.1129C1080.12 97.0272 1078.08 97.8985 1074.36 97.8985C1069.95 97.8985 1066.52 95.1966 1066.52 89.7855C1066.52 85.5605 1068.82 82.6829 1072.1 81.277C1074.95 80.0322 1078.92 79.8125 1081.95 79.4684V78.7947C1081.95 77.5573 1082.05 76.0928 1081.32 75.0238C1080.68 74.0646 1079.45 73.6692 1078.38 73.6692C1076.38 73.6692 1074.6 74.687 1074.17 76.7958C1074.08 77.2644 1073.73 77.7257 1073.26 77.7477L1068.18 77.2058C1067.75 77.1106 1067.28 76.7665 1067.4 76.1148C1068.57 69.9934 1074.13 68.1482 1079.11 68.1482C1081.66 68.1482 1084.99 68.8218 1087 70.7403C1089.55 73.1054 1089.3 76.2612 1089.3 79.6954V87.8084C1089.3 90.2468 1090.32 91.3158 1091.28 92.6338C1091.62 93.1024 1091.69 93.6662 1091.26 94.0177C1090.2 94.9037 1088.3 96.5512 1087.25 97.4738L1087.23 97.4591" fill="#CED2D6"></path><path fill-rule="evenodd" clip-rule="evenodd" d="M1509.21 57.2559V52.8187H1491.55V77.1533H1509.21V73.1459H1496.47V66.5367H1507.62V62.1809H1496.47V57.2559H1509.21Z" fill="#CED2D6"></path><path fill-rule="evenodd" clip-rule="evenodd" d="M1504.29 79.6622V89.036H1494.63V79.6622H1489.63V103.915H1494.63V93.0433H1504.29V103.915H1509.21V79.6622H1504.29Z" fill="#CED2D6"></path><path fill-rule="evenodd" clip-rule="evenodd" d="M1509.21 110.78V106.424H1491.55V131.096H1509.21V126.67H1496.47V120.142H1507.62V116.123H1496.47V110.78H1509.21Z" fill="#CED2D6"></path><path fill-rule="evenodd" clip-rule="evenodd" d="M1488.72 52.8187H1483.8V62.1809H1474.14V52.8187H1469.22V77.1533H1474.14V66.2811H1483.8V77.1533H1488.72V52.8187Z" fill="#CED2D6"></path><path fill-rule="evenodd" clip-rule="evenodd" d="M1448.06 52.8187V57.2559H1455.55V77.1533H1460.47V57.2559H1467.97V52.8187H1448.06Z" fill="#CED2D6"></path><path fill-rule="evenodd" clip-rule="evenodd" d="M1432.56 78.9886C1424.82 78.9886 1420.74 83.4258 1420.74 91.7658C1420.74 100.547 1424.82 104.891 1432.56 104.891C1440.3 104.891 1444.32 100.547 1444.32 91.7658C1444.32 83.4026 1440.32 78.9886 1432.56 78.9886ZM1426.07 91.7658C1426.07 86.1554 1428.24 83.4025 1432.56 83.4025C1437.19 83.4025 1439.4 86.1554 1439.4 91.7658C1439.4 97.7013 1437.24 100.547 1432.56 100.547C1428.24 100.547 1426.07 97.7013 1426.07 91.7658Z" fill="#CED2D6"></path><path fill-rule="evenodd" clip-rule="evenodd" d="M1413.66 79.6622V96.8068L1403.99 79.6622H1398.74V103.915H1403.4V86.8523L1413.32 103.915H1418.57V79.6622H1413.66Z" fill="#CED2D6"></path><path fill-rule="evenodd" clip-rule="evenodd" d="M1436.57 116.46V110.78H1448.98V106.424H1431.65V131.096H1436.57V120.816H1447.48V116.46H1436.57Z" fill="#CED2D6"></path><path fill-rule="evenodd" clip-rule="evenodd" d="M1487.8 84.0181V79.6622H1467.97V84.0181H1475.39V103.915H1480.39V84.0181H1487.8Z" fill="#CED2D6"></path><path fill-rule="evenodd" clip-rule="evenodd" d="M1457.06 94.6348C1458.64 94.6348 1459.89 94.8787 1460.47 95.5524L1461.4 103.916H1466.97V103.323C1466.4 102.998 1466.06 101.488 1466.06 98.677C1466.06 95.1924 1464.81 93.4152 1462.97 92.486C1465.47 91.4871 1466.72 89.6517 1466.72 86.5504C1466.72 82.2062 1464.22 79.6973 1458.98 79.6973H1446.82V103.951H1451.82V94.6581L1457.06 94.6348ZM1451.82 90.5346V84.0066H1457.95C1460.45 84.0066 1461.7 84.9243 1461.7 87.108C1461.7 89.2917 1460.45 90.5346 1457.71 90.5346H1451.82Z" fill="#CED2D6"></path><path fill-rule="evenodd" clip-rule="evenodd" d="M1460.47 106.424H1454.56L1445.89 131.096H1451.15L1453.07 125.741H1462.06L1463.56 131.096H1468.9L1460.47 106.424V106.424ZM1457.39 111.988L1460.47 121.687H1454.32L1457.39 111.988V111.988Z" fill="#CED2D6"></path><path fill-rule="evenodd" clip-rule="evenodd" d="M1484.72 114.532H1489.63C1489.48 112.446 1488.63 110.472 1487.22 108.933C1485.01 106.919 1482.12 105.812 1479.12 105.832C1477.61 105.806 1476.1 106.103 1474.7 106.704C1473.31 107.305 1472.05 108.195 1471.02 109.317C1468.9 111.961 1467.81 115.286 1467.93 118.679C1467.93 127.379 1471.6 131.723 1478.77 131.723C1485.01 131.723 1488.44 128.633 1489.6 122.698H1484.69C1484.43 123.975 1483.73 125.117 1482.7 125.915C1481.67 126.712 1480.4 127.112 1479.1 127.042C1475.02 127.042 1473.19 124.278 1473.19 118.911C1473.19 113.103 1475.02 110.211 1479.1 110.211C1481.85 110.211 1483.44 111.803 1484.69 114.555L1484.72 114.532Z" fill="#CED2D6"></path><path fill-rule="evenodd" clip-rule="evenodd" d="M1422.98 130.759C1423.72 130.755 1424.43 130.487 1424.98 130.004C1425.48 129.422 1425.75 128.679 1425.74 127.914V127.914C1425.76 127.532 1425.7 127.151 1425.57 126.792C1425.44 126.433 1425.24 126.103 1424.98 125.823C1424.42 125.37 1423.71 125.135 1422.98 125.161H1422.9C1422.53 125.127 1422.15 125.169 1421.79 125.282C1421.44 125.396 1421.1 125.58 1420.82 125.823C1420.58 126.11 1420.39 126.443 1420.28 126.802C1420.17 127.161 1420.12 127.539 1420.16 127.914V127.995C1420.13 128.722 1420.37 129.435 1420.82 130.004C1421.1 130.263 1421.43 130.464 1421.78 130.593C1422.14 130.723 1422.52 130.78 1422.9 130.759H1422.98V130.759ZM1422.9 131.433C1422.42 131.451 1421.95 131.371 1421.51 131.197C1421.06 131.023 1420.66 130.76 1420.32 130.422C1420.03 130.094 1419.8 129.71 1419.66 129.293C1419.52 128.876 1419.46 128.435 1419.49 127.995V127.914C1419.45 127.448 1419.5 126.978 1419.64 126.533C1419.78 126.088 1420.02 125.677 1420.32 125.323C1420.67 125.017 1421.08 124.785 1421.53 124.642C1421.97 124.498 1422.44 124.445 1422.9 124.487H1422.98C1423.42 124.458 1423.86 124.517 1424.27 124.66C1424.69 124.804 1425.07 125.029 1425.4 125.323C1425.74 125.662 1426 126.068 1426.17 126.513C1426.34 126.959 1426.42 127.436 1426.41 127.914C1426.42 128.379 1426.33 128.841 1426.16 129.272C1425.99 129.704 1425.73 130.095 1425.4 130.422C1425.08 130.745 1424.71 131.001 1424.29 131.174C1423.88 131.348 1423.43 131.436 1422.98 131.433H1422.9ZM1423.24 127.577H1423.32C1423.65 127.577 1423.81 127.414 1423.81 126.996V126.915C1423.79 126.915 1423.77 126.906 1423.76 126.891C1423.74 126.875 1423.73 126.855 1423.73 126.833C1423.65 126.74 1423.49 126.74 1423.24 126.74H1422.32V127.577H1423.24ZM1423.81 128.169L1424.49 129.005C1424.52 129.075 1424.53 129.152 1424.51 129.227C1424.5 129.302 1424.46 129.371 1424.4 129.424C1424.34 129.483 1424.25 129.516 1424.16 129.516C1424.06 129.516 1423.98 129.483 1423.91 129.424L1423.07 128.262H1422.32V129.18C1422.32 129.269 1422.29 129.355 1422.22 129.418C1422.16 129.481 1422.08 129.516 1421.99 129.516C1421.9 129.516 1421.81 129.481 1421.75 129.418C1421.69 129.355 1421.65 129.269 1421.65 129.18V126.427C1421.66 126.339 1421.69 126.257 1421.76 126.195C1421.82 126.133 1421.9 126.095 1421.99 126.09H1423.32C1423.61 126.07 1423.91 126.156 1424.15 126.334C1424.23 126.427 1424.32 126.427 1424.32 126.508C1424.39 126.574 1424.43 126.653 1424.46 126.74C1424.49 126.826 1424.5 126.917 1424.49 127.007C1424.49 127.681 1424.32 128.006 1423.81 128.169Z" fill="#CED2D6"></path><path fill-rule="evenodd" clip-rule="evenodd" d="M1512.63 52.8188C1520.03 52.7289 1527.36 54.1499 1534.2 56.9954C1541.03 59.8409 1547.21 64.0515 1552.37 69.371C1563.53 80.5839 1569.11 93.9921 1569.11 109.596V131.096H1546.46V108.934C1546.52 104.753 1545.72 100.605 1544.11 96.7472C1542.51 92.8899 1540.13 89.4067 1537.12 86.5155C1535.64 84.9707 1533.99 83.5955 1532.21 82.4152C1527.15 79.0747 1521.19 77.3573 1515.13 77.4902H1512.63V52.8188ZM1544.29 131.096H1526.62V113.951C1526.67 112.67 1526.44 111.393 1525.95 110.208C1525.46 109.023 1524.72 107.959 1523.79 107.087C1522.9 106.175 1521.84 105.454 1520.66 104.967C1519.49 104.48 1518.23 104.237 1516.96 104.253H1512.63V79.6623H1515.13C1521.29 79.5574 1527.31 81.5333 1532.21 85.2727C1533.49 86.0068 1534.64 86.94 1535.62 88.0372C1538.43 90.7331 1540.65 93.9825 1542.14 97.5808C1543.63 101.179 1544.36 105.048 1544.29 108.945V131.108V131.096ZM1524.46 131.096H1512.63V106.425H1516.96C1518.95 106.412 1520.87 107.193 1522.29 108.597C1523.69 110.029 1524.46 111.951 1524.46 113.951V131.096V131.096Z" fill="#CED2D6"></path><path fill-rule="evenodd" clip-rule="evenodd" d="M1839.32 54.236C1852.88 61.368 1862.15 75.5872 1862.15 91.9775C1862.15 108.368 1852.88 122.632 1839.32 129.72V124.847C1844.51 121.744 1848.9 117.403 1852.09 112.265L1839.32 107.083V99.1981L1853.33 110.14C1856.25 104.735 1857.89 98.5771 1857.89 91.9764C1857.89 78.0666 1850.45 65.8414 1839.32 59.1073V54.236ZM1819.6 49.4073C1826.69 49.4073 1833.38 51.1357 1839.32 54.236V59.1095C1833.87 55.8299 1827.49 53.8818 1820.75 53.6599L1825.63 88.523L1839.32 99.1992V107.084L1819.51 99.0658L1799.83 107.128V99.2866L1813.62 88.5219L1818.45 53.6588C1811.62 53.8807 1805.28 55.8299 1799.83 59.1073V54.236C1805.73 51.1357 1812.46 49.4073 1819.6 49.4073ZM1839.32 129.72C1833.38 132.82 1826.69 134.591 1819.6 134.591C1812.46 134.591 1805.73 132.82 1799.83 129.764V124.847C1805.59 128.345 1812.38 130.339 1819.6 130.339C1826.78 130.339 1833.52 128.345 1839.32 124.847V129.72ZM1799.83 129.764C1786.23 122.632 1776.96 108.368 1776.96 91.9775C1776.96 75.5872 1786.23 61.368 1799.83 54.236V59.1095C1788.66 65.8425 1781.22 78.024 1781.22 91.9775C1781.22 98.5771 1782.9 104.825 1785.83 110.228L1799.83 99.2866V107.128L1787.11 112.354C1790.3 117.45 1794.65 121.745 1799.83 124.847V129.764Z" fill="#CED2D6"></path><path fill-rule="evenodd" clip-rule="evenodd" d="M2234.57 73.2593L2225.3 92.7348L2221.8 85.3454H2218.02L2223.77 97.4316H2226.82L2238.33 73.2626V73.2593H2234.57Z" fill="#CED2D6"></path><path d="M2136.09 76.7845H2143.63V83.3211H2136.09V76.7845ZM2076.84 109.424H2084.71L2093.25 85.3444H2085.71L2080.92 100.817H2080.82L2076.02 85.3444H2068.3L2076.84 109.424ZM2104.47 89.9079C2107.11 89.9079 2108.94 91.8357 2109.22 94.6574H2099.2C2099.77 91.788 2101.35 89.9079 2104.47 89.9079ZM2104.86 104.815C2101.55 104.815 2099.53 102.699 2099.15 99.4539H2116.85C2116.9 94.2804 2115.51 90.1425 2112.58 87.5562C2110.52 85.6745 2107.78 84.6398 2104.33 84.6398C2096.94 84.6398 2091.81 90.1425 2091.81 97.3376C2091.81 104.58 2096.7 110.13 2104.81 110.13C2107.88 110.13 2110.33 109.33 2112.34 107.965C2114.5 106.509 2116.04 104.392 2116.47 102.276H2109.27C2108.55 103.876 2107.06 104.815 2104.86 104.815ZM2118.63 109.424H2126.11V98.3723C2126.11 93.3412 2129.18 91.1294 2133.88 91.741H2134.03V85.393C2133.65 85.2514 2133.21 85.2045 2132.49 85.2045C2129.57 85.2045 2127.6 86.5215 2125.92 89.3424H2125.78V85.3444H2118.63V109.424ZM2136.09 109.424H2143.63V85.3444H2136.09V109.424ZM2145.69 109.424H2166.71V103.639H2154.81V103.499L2166.18 90.9895V85.3444H2145.69V91.1294H2157.2V91.271L2145.69 103.876V109.424ZM2180 104.769C2176.44 104.769 2174.57 101.853 2174.57 97.4322C2174.57 92.9642 2176.44 90.0939 2180 90.0939C2183.55 90.0939 2185.51 92.9642 2185.51 97.4322C2185.51 101.853 2183.55 104.769 2180 104.769ZM2180.04 84.6859C2172.22 84.6859 2166.99 90.1894 2166.99 97.4322C2166.99 104.627 2172.22 110.177 2180.04 110.177C2187.86 110.177 2193.09 104.627 2193.09 97.4322C2193.09 90.1894 2187.86 84.6859 2180.04 84.6859ZM2194.73 109.424H2202.21V96.0205C2202.21 92.9642 2204.03 90.801 2206.72 90.801C2209.31 90.801 2210.66 92.5872 2210.66 95.1274V109.424H2218.14V93.7158C2218.14 88.4024 2214.88 84.6398 2209.6 84.6398C2206.24 84.6398 2203.89 86.0515 2202.12 88.6378H2201.97V85.3444H2194.73V109.424Z" fill="#CED2D6"></path><path d="M2402.22 125.377C2403.77 122.902 2405.29 120.45 2406.84 117.972L2408.12 118.124C2408.48 118.165 2408.83 118.227 2409.18 118.246C2410.7 118.329 2412.04 117.829 2413.31 117.079C2414.58 116.33 2415.6 115.312 2416.51 114.193C2417.52 112.937 2418.41 111.598 2419.18 110.191C2419.59 109.466 2419.92 108.708 2420.29 107.962C2420.75 107.029 2421.19 106.09 2421.66 105.16C2421.71 105.07 2421.74 104.969 2421.74 104.866C2421.74 104.763 2421.71 104.662 2421.66 104.572C2420.44 101.996 2419.21 99.4168 2418 96.8349C2417.07 94.841 2416.13 92.8424 2415.19 90.8391C2415.16 90.7755 2415.14 90.7101 2415.1 90.6235C2415.17 90.5738 2415.24 90.5278 2415.31 90.4856C2417.62 89.3202 2419.93 88.1571 2422.24 86.9963C2422.33 86.95 2422.42 86.9104 2422.51 86.8779C2423.07 86.7012 2423.35 86.8249 2423.59 87.341C2424.59 89.4622 2425.59 91.5833 2426.6 93.7044C2427.67 95.98 2428.75 98.2537 2429.82 100.526C2430.73 102.458 2431.64 104.393 2432.55 106.325C2433.12 107.545 2433.71 108.763 2434.29 109.981C2434.32 110.037 2434.36 110.09 2434.4 110.141C2434.49 109.989 2434.58 109.871 2434.64 109.742C2435.15 108.726 2435.66 107.708 2436.17 106.688C2436.42 106.173 2436.67 105.652 2436.94 105.143C2437 105.048 2437.03 104.94 2437.03 104.83C2437.04 104.72 2437.01 104.611 2436.96 104.513C2436.42 103.313 2435.88 102.104 2435.34 100.899C2434.55 99.144 2433.76 97.3893 2432.97 95.6347L2431.22 91.7459C2431.16 91.5921 2431.09 91.4366 2431 91.228C2433.56 89.9624 2436.13 88.7233 2438.74 87.4559C2444.38 99.5906 2449.99 111.69 2455.64 123.856L2446.03 123.78C2443.56 118.478 2441.09 113.187 2438.59 107.829C2438.49 107.978 2438.43 108.061 2438.38 108.153C2437.57 109.79 2436.76 111.43 2435.95 113.065C2435.9 113.155 2435.87 113.257 2435.87 113.36C2435.87 113.463 2435.89 113.565 2435.94 113.657C2436.97 115.935 2438 118.217 2439.02 120.501C2439.47 121.527 2439.93 122.554 2440.38 123.584C2440.44 123.708 2440.48 123.839 2440.55 124.019H2440.08C2437.05 124.019 2434.03 124.019 2431 124.019C2430.85 124.034 2430.71 123.999 2430.59 123.921C2430.47 123.843 2430.37 123.726 2430.33 123.59C2429.04 120.886 2427.75 118.186 2426.45 115.49C2425.38 113.26 2424.31 111.028 2423.25 108.796C2423.17 108.62 2423.07 108.455 2422.95 108.224C2422.88 108.328 2422.81 108.436 2422.75 108.547C2422.08 109.989 2421.44 111.444 2420.75 112.871C2419.86 114.689 2418.94 116.495 2418 118.288C2417.25 119.732 2416.4 121.122 2415.46 122.449C2414.47 123.832 2413.38 125.129 2411.93 126.082C2410.57 126.988 2408.92 127.378 2407.29 127.178C2405.99 127.016 2404.71 126.69 2403.49 126.206C2403.01 126.024 2402.58 125.741 2402.22 125.377V125.377Z" fill="#CED2D6"></path><path d="M2474.41 121.181H2473.99C2471.91 121.181 2469.83 121.181 2467.76 121.181C2467.63 121.188 2467.5 121.165 2467.39 121.113C2467.27 121.061 2467.17 120.981 2467.09 120.881C2466.56 120.247 2466.18 119.485 2465.99 118.664C2465.95 118.51 2465.91 118.355 2465.86 118.156C2465.76 118.216 2465.66 118.283 2465.56 118.355C2464.59 119.218 2463.51 119.95 2462.36 120.535C2461.27 121.082 2460.14 121.514 2458.89 121.447C2458.35 121.423 2457.82 121.261 2457.35 120.974C2457.07 120.8 2456.77 120.654 2456.5 120.47C2455.37 119.7 2454.53 118.644 2453.89 117.431C2453.3 116.396 2452.94 115.246 2452.81 114.055C2452.56 111.214 2453.16 108.632 2455.12 106.51C2455.97 105.619 2456.99 104.91 2458.11 104.423C2459.59 103.738 2461.1 103.152 2462.6 102.516C2463.26 102.237 2463.91 101.944 2464.56 101.638C2464.98 101.422 2465.34 101.102 2465.61 100.708C2466.24 99.88 2465.7 98.6467 2464.79 98.4254C2464.11 98.2625 2463.41 98.2179 2462.71 98.2933C2461.26 98.4384 2459.93 98.9797 2458.68 99.7424C2457.53 100.471 2456.43 101.3 2455.41 102.22C2455.32 102.302 2455.22 102.375 2455.08 102.479C2455.08 102.408 2455.07 102.338 2455.07 102.267C2455.34 100.806 2455.59 99.3406 2456.11 97.9417C2456.38 97.2422 2456.77 96.5992 2457.26 96.0444C2457.44 95.8401 2457.66 95.674 2457.9 95.5551C2459.36 94.8532 2460.92 94.3979 2462.51 94.2065C2463.78 94.0448 2465.06 93.9888 2466.34 94.0391C2467.84 94.0509 2469.28 94.5756 2470.45 95.5309C2471.19 96.1065 2471.79 96.8401 2472.22 97.6812C2472.66 98.5222 2472.91 99.4507 2472.96 100.403C2473.1 102.274 2473.06 104.145 2473.07 106.017C2473.1 109.778 2473.12 113.537 2473.11 117.299C2473.11 118.564 2473.51 119.663 2474.15 120.703C2474.21 120.803 2474.28 120.889 2474.34 120.997C2474.37 121.057 2474.39 121.118 2474.41 121.181V121.181ZM2465.83 111.184C2465.75 110.12 2465.68 109.108 2465.61 108.095C2465.57 107.507 2465.53 106.919 2465.48 106.333C2465.42 105.645 2465.03 105.26 2464.37 105.237C2464.19 105.224 2464.01 105.248 2463.83 105.306C2463.36 105.492 2462.85 105.658 2462.44 105.944C2461.63 106.481 2460.94 107.181 2460.41 108.003C2459.88 108.824 2459.51 109.75 2459.33 110.723C2459.1 111.897 2459.07 113.102 2459.23 114.287C2459.37 115.353 2459.84 116.186 2460.93 116.478C2461.18 116.544 2461.43 116.584 2461.69 116.596C2462.56 116.635 2463.32 116.311 2464.05 115.851C2464.48 115.606 2464.85 115.26 2465.13 114.84C2465.41 114.42 2465.58 113.938 2465.65 113.433C2465.74 112.669 2465.77 111.9 2465.83 111.184Z" fill="#CED2D6"></path><path d="M2519.18 109.104C2519.18 107.613 2519.15 106.477 2519.2 105.345C2519.23 104.403 2519.37 103.465 2519.46 102.526C2519.47 102.41 2519.5 102.295 2519.5 102.179C2519.64 100.275 2520.54 98.8262 2522.04 97.7586C2522.82 97.1945 2523.62 96.6734 2524.45 96.1976C2525.28 95.7335 2526.16 95.3519 2527.03 94.9741C2527.71 94.6741 2528.4 94.4138 2529.1 94.1945C2529.68 94.0138 2530.3 93.9738 2530.89 94.0776C2531.49 94.1813 2532.06 94.4261 2532.55 94.7925C2533.34 95.3428 2534.13 95.9261 2534.87 96.5424C2536.03 97.4965 2537.07 98.6072 2537.94 99.8442C2538.26 100.323 2538.49 100.86 2538.62 101.427C2538.77 102.018 2538.91 102.61 2539.03 103.208C2539.09 103.491 2539.08 103.786 2539.11 104.076C2539.32 105.983 2539.41 107.902 2539.38 109.821C2539.37 110.681 2539.3 111.539 2539.17 112.389C2538.88 114.094 2538.07 115.659 2536.85 116.856C2535.73 118.011 2534.49 119.044 2533.16 119.939C2532.14 120.625 2531.05 121.188 2529.82 121.372C2528.8 121.554 2527.74 121.431 2526.78 121.016C2525.04 120.264 2523.44 119.205 2522.05 117.887C2521.03 116.935 2520.23 115.76 2519.71 114.447C2519.46 113.752 2519.31 113.019 2519.28 112.277C2519.23 111.1 2519.21 109.924 2519.18 109.104ZM2532.64 108.565C2532.6 107.563 2532.58 106.562 2532.53 105.56C2532.5 104.967 2532.42 104.375 2532.35 103.784C2532.25 102.906 2532.18 102.018 2532.01 101.152C2531.82 100.019 2531.21 99.0076 2530.3 98.3327C2530.08 98.1567 2529.82 98.0474 2529.54 98.0172C2529.27 97.9871 2528.99 98.0373 2528.74 98.1621C2528.19 98.4081 2527.72 98.8226 2527.41 99.3489C2526.82 100.356 2526.57 101.468 2526.46 102.62C2526.38 103.537 2526.33 104.476 2526.26 105.402C2526.16 106.677 2526.16 107.959 2526.26 109.234C2526.37 110.507 2526.52 111.777 2526.65 113.048C2526.75 114.02 2526.92 114.974 2527.38 115.845C2527.62 116.347 2527.99 116.768 2528.46 117.054C2528.91 117.305 2529.38 117.448 2529.89 117.223C2530.53 116.939 2531.06 116.436 2531.38 115.797C2531.77 115.004 2532.05 114.16 2532.22 113.288C2532.52 111.729 2532.6 110.151 2532.64 108.565V108.565Z" fill="#CED2D6"></path><path d="M2537.94 97.4286C2538.23 96.7152 2538.48 96.1107 2538.71 95.4954C2538.73 95.4076 2538.79 95.3333 2538.87 95.286C2538.94 95.2386 2539.03 95.2215 2539.12 95.2376C2539.86 95.2376 2540.6 95.2376 2541.34 95.2376H2541.83V89.6103L2549.07 86.8021V95.0561C2550.18 95.0851 2551.25 95.0561 2552.38 95.0779L2551.54 97.454L2549.08 97.4831V98.0004C2549.08 104.606 2549.07 111.212 2549.08 117.818C2549.08 119.117 2549.43 120.317 2550.32 121.288C2550.35 121.336 2550.38 121.385 2550.41 121.437C2550.28 121.437 2550.17 121.454 2550.07 121.454C2548.19 121.454 2546.31 121.454 2544.44 121.454C2544.19 121.459 2543.94 121.375 2543.75 121.218C2543.01 120.653 2542.63 119.845 2542.39 118.959C2542.14 117.972 2541.98 116.961 2541.92 115.941C2541.75 113.557 2541.75 111.168 2541.77 108.779C2541.79 105.196 2541.81 101.612 2541.83 98.0277V97.4232L2537.94 97.4286Z" fill="#CED2D6"></path><path d="M2557.73 97.4099H2553.82C2553.88 97.2285 2553.91 97.1051 2553.95 96.9908C2554.15 96.5029 2554.37 96.0222 2554.56 95.5288C2554.59 95.4327 2554.64 95.3495 2554.72 95.2944C2554.8 95.2394 2554.9 95.2163 2554.99 95.2295C2555.77 95.2422 2556.55 95.2295 2557.34 95.2295C2557.44 95.2295 2557.55 95.215 2557.72 95.2041C2557.73 94.2645 2557.72 93.3358 2557.72 92.4089C2557.72 91.482 2557.72 90.5696 2557.72 89.5919L2564.94 86.8021V95.0681H2568.26C2568.2 95.2694 2568.16 95.4 2568.11 95.5306C2567.93 96.0567 2567.75 96.5845 2567.56 97.1069C2567.43 97.4697 2567.42 97.4697 2567.05 97.4697C2566.51 97.4697 2565.98 97.4697 2565.44 97.4697C2565.29 97.4697 2565.14 97.4842 2564.97 97.4933C2564.95 97.6457 2564.93 97.769 2564.93 97.8924C2564.93 104.578 2564.92 111.264 2564.93 117.951C2564.92 119.145 2565.33 120.303 2566.09 121.19C2566.14 121.25 2566.19 121.317 2566.28 121.439H2565.82C2564.07 121.439 2562.31 121.411 2560.55 121.453C2559.93 121.468 2559.52 121.176 2559.15 120.728C2558.61 120.048 2558.26 119.224 2558.14 118.35C2557.96 117.347 2557.85 116.334 2557.8 115.315C2557.72 113.262 2557.69 111.205 2557.69 109.148C2557.69 105.424 2557.71 101.7 2557.72 97.9758L2557.73 97.4099Z" fill="#CED2D6"></path><path d="M2483.77 120.009H2483.28C2481.37 120.009 2479.46 120.009 2477.55 120.009C2477.4 120.015 2477.25 119.988 2477.11 119.932C2476.97 119.875 2476.85 119.79 2476.74 119.683C2475.99 118.934 2475.51 117.966 2475.37 116.926C2475.3 116.406 2475.26 115.881 2475.26 115.356C2475.23 109.811 2475.21 104.267 2475.2 98.7231C2475.22 98.0897 2475.13 97.4576 2474.94 96.8514C2474.8 96.4601 2474.6 96.0908 2474.41 95.6859C2474.5 95.6697 2474.59 95.6589 2474.68 95.6535C2476.78 95.6637 2478.89 95.6808 2480.98 95.6842C2481.09 95.6744 2481.2 95.6957 2481.3 95.7455C2481.4 95.7953 2481.48 95.8714 2481.54 95.9649C2481.65 96.1627 2481.76 96.366 2481.86 96.5741C2481.96 96.7919 2482.03 97.0165 2482.15 97.287C2482.51 97.0199 2482.85 96.8089 2483.14 96.5468C2484.8 95.0461 2488.07 95.0937 2489.88 96.7731C2490.02 96.9025 2490.14 97.0488 2490.29 97.2121L2487.36 101.626C2487 101.435 2486.69 101.253 2486.37 101.102C2485.09 100.501 2483.84 100.574 2482.63 101.284C2482.51 101.343 2482.42 101.433 2482.35 101.543C2482.29 101.654 2482.26 101.78 2482.27 101.907C2482.28 106.372 2482.27 110.836 2482.28 115.301C2482.27 116.275 2482.42 117.245 2482.72 118.174C2482.9 118.77 2483.21 119.323 2483.62 119.797C2483.66 119.839 2483.68 119.887 2483.77 120.009Z" fill="#CED2D6"></path><path d="M2501.11 120.009H2500.62C2498.72 120.009 2496.81 120.009 2494.9 120.009C2494.76 120.016 2494.61 119.994 2494.48 119.944C2494.35 119.893 2494.22 119.816 2494.12 119.716C2493.49 119.116 2493.06 118.355 2492.86 117.522C2492.67 116.746 2492.57 115.95 2492.58 115.152C2492.57 109.514 2492.54 103.879 2492.53 98.2429C2492.56 97.4149 2492.31 96.6004 2491.83 95.9158C2491.8 95.8826 2491.78 95.8473 2491.77 95.8104C2491.76 95.7866 2491.75 95.7576 2491.74 95.6981C2491.82 95.6768 2491.91 95.6625 2492 95.6556C2494.11 95.6658 2496.21 95.6828 2498.31 95.6862C2498.42 95.6749 2498.54 95.698 2498.65 95.7525C2498.75 95.8071 2498.84 95.8906 2498.89 95.9924C2499.02 96.2288 2499.14 96.4738 2499.24 96.7188C2499.32 96.8889 2499.38 97.059 2499.47 97.2886C2499.81 97.042 2500.12 96.8412 2500.4 96.6082C2501.9 95.3545 2503.61 95.2337 2505.42 95.7576C2506.3 96.0094 2507.07 96.524 2507.62 97.2274L2504.68 101.633C2504.32 101.441 2504 101.25 2503.66 101.096C2502.39 100.516 2501.16 100.585 2499.96 101.293C2499.84 101.357 2499.74 101.454 2499.68 101.571C2499.61 101.689 2499.58 101.822 2499.59 101.955C2499.61 106.391 2499.59 110.828 2499.61 115.264C2499.6 116.141 2499.72 117.015 2499.95 117.863C2500.12 118.577 2500.46 119.24 2500.95 119.796C2500.99 119.832 2501.02 119.881 2501.11 120.009Z" fill="#CED2D6"></path><path d="M2517.73 121.402C2517.58 121.414 2517.46 121.43 2517.35 121.43C2515.45 121.43 2513.56 121.43 2511.66 121.452C2511.55 121.461 2511.43 121.438 2511.33 121.387C2511.22 121.336 2511.13 121.257 2511.05 121.158C2510.39 120.299 2509.98 119.241 2509.87 118.123C2509.77 117.286 2509.72 116.443 2509.72 115.598C2509.72 110.466 2509.73 105.332 2509.74 100.199C2509.74 99.3844 2509.75 98.5765 2509.71 97.7577C2509.68 97.0256 2509.49 96.3127 2509.14 95.6821C2509.12 95.6352 2509.1 95.5847 2509.06 95.4909C2509.23 95.4909 2509.36 95.4675 2509.48 95.4675C2511.23 95.4675 2512.98 95.4675 2514.73 95.4675C2514.88 95.4559 2515.02 95.4888 2515.15 95.5621C2515.27 95.6355 2515.38 95.7465 2515.45 95.8822C2515.48 95.9309 2515.51 95.9778 2515.53 96.0283C2515.99 96.9751 2516.29 97.9597 2516.3 99.0489C2516.32 105.313 2516.35 111.576 2516.38 117.838C2516.38 118.686 2516.67 119.461 2517.03 120.197C2517.23 120.596 2517.47 120.967 2517.73 121.402Z" fill="#CED2D6"></path><path d="M2481.03 60.8136C2481.11 60.9573 2481.18 61.0758 2481.24 61.1998C2482.26 63.3067 2483.3 65.41 2484.3 67.5259C2484.76 68.4868 2485.18 69.4675 2485.59 70.4536C2485.88 71.1721 2486.08 71.9301 2485.89 72.7042C2485.58 73.9615 2485.18 75.1901 2484.26 76.169C2483.43 77.0925 2482.34 77.7368 2481.13 78.0155C2480.8 78.0845 2480.47 78.123 2480.13 78.1305C2478.6 78.1897 2477.12 77.9616 2475.75 77.2324C2475.51 77.0995 2475.28 76.9306 2475.03 76.7923C2474.91 76.7284 2474.81 76.6362 2474.74 76.524C2474.67 76.4117 2474.62 76.283 2474.61 76.1493C2473.88 71.1038 2475.15 66.6709 2478.6 62.9151C2479.25 62.2165 2479.96 61.5847 2480.73 61.0291C2480.82 60.9555 2480.9 60.9034 2481.03 60.8136Z" fill="#CED2D6"></path><path d="M2493.18 57.9259C2493.96 58.019 2494.72 58.1956 2495.46 58.4528C2500.87 60.295 2504.19 64.0493 2505.65 69.447C2506.47 72.4296 2506.33 75.594 2505.23 78.4903C2504.94 79.2863 2504.56 80.049 2504.1 80.7654C2504.06 80.8354 2504.01 80.8999 2503.92 81.027C2500.34 73.3156 2496.77 65.6576 2493.18 57.9259Z" fill="#CED2D6"></path><path d="M2487.31 73.8079C2487.42 74.0032 2487.48 74.107 2487.53 74.2159C2489.38 78.1889 2491.23 82.1603 2493.09 86.1298C2493.16 86.261 2493.19 86.4096 2493.18 86.5582C2493.17 86.7067 2493.11 86.8491 2493.02 86.9684C2492.75 87.3573 2492.36 87.6585 2491.91 87.8328C2491.04 88.172 2490.09 88.3053 2489.15 88.2218C2486.01 88.0126 2483.18 86.9442 2480.63 85.1945C2479.36 84.3494 2478.29 83.2676 2477.46 82.0133C2477.41 81.9338 2477.37 81.8508 2477.3 81.7332C2479.81 81.8698 2481.98 81.1073 2483.88 79.6412C2485.78 78.1751 2487.05 76.301 2487.31 73.8079Z" fill="#CED2D6"></path><path d="M2485.96 58.4775C2486.4 58.1648 2486.85 57.8942 2487.43 57.9289C2487.72 57.9435 2488.02 57.9289 2488.34 57.9289C2488.4 58.0642 2488.47 58.1886 2488.53 58.3184C2492.45 67.0852 2496.38 75.8508 2500.31 84.6151C2500.37 84.7405 2500.4 84.8813 2500.4 85.0238C2500.4 85.1662 2500.36 85.3052 2500.29 85.4271C2499.94 86.0487 2499.41 86.5333 2498.76 86.8022C2498.55 86.548 2486.21 59.2438 2485.96 58.4775Z" fill="#CED2D6"></path><path d="M2569.73 121.454C2568.08 121.454 2566.82 120.202 2566.82 118.564C2566.82 116.927 2568.06 115.702 2569.68 115.679C2571.26 115.659 2572.59 116.858 2572.59 118.562C2572.59 120.194 2571.38 121.43 2569.73 121.454ZM2569.7 116.107C2569.38 116.109 2569.07 116.173 2568.78 116.298C2568.49 116.423 2568.22 116.605 2568 116.834C2567.55 117.297 2567.3 117.923 2567.3 118.574C2567.31 119.226 2567.56 119.85 2568.02 120.309C2568.47 120.768 2569.08 121.024 2569.72 121.021C2570.03 121.025 2570.34 120.964 2570.63 120.842C2570.92 120.721 2571.18 120.541 2571.4 120.314C2571.62 120.086 2571.8 119.816 2571.91 119.519C2572.03 119.222 2572.08 118.904 2572.08 118.584C2572.09 118.26 2572.03 117.937 2571.92 117.635C2571.8 117.333 2571.63 117.059 2571.41 116.827C2571.18 116.596 2570.92 116.413 2570.62 116.289C2570.33 116.165 2570.02 116.103 2569.7 116.107V116.107Z" fill="#CED2D6"></path><path d="M2568.26 117.134C2568.88 117.134 2569.47 117.108 2570.06 117.134C2570.68 117.17 2571.02 117.42 2571.08 117.81C2571.14 118.254 2570.93 118.496 2570.32 118.678C2570.25 118.699 2570.19 118.725 2570.07 118.766L2571.15 119.967C2570.8 120.051 2570.57 120.02 2570.41 119.795C2570.22 119.545 2570.01 119.303 2569.81 119.061C2569.48 118.682 2569.46 118.677 2568.74 118.78V119.981H2568.27L2568.26 117.134ZM2568.77 117.499V118.404C2569.24 118.404 2569.69 118.471 2570.12 118.35C2570.25 118.317 2570.36 118.252 2570.44 118.165C2570.51 118.079 2570.54 117.976 2570.53 117.875C2570.52 117.779 2570.47 117.689 2570.38 117.618C2570.29 117.548 2570.17 117.503 2570.04 117.491C2569.62 117.418 2569.18 117.421 2568.77 117.499V117.499Z" fill="#CED2D6"></path></svg> 