<svg xmlns="http://www.w3.org/2000/svg" width="48" height="48" viewBox="0 0 48 48">
    <path data-name="Path 2767" d="M-18.444 12.32h-32.211a3.4 3.4 0 0 0-3.4 3.394 3.384 3.384 0 0 0 1.663 2.9V32.13l-2.047 3.546a4.051 4.051 0 0 0 0 4.1 4.054 4.054 0 0 0 3.547 2.048 4.054 4.054 0 0 0 3.547-2.048 4.054 4.054 0 0 0 0-4.1l-2.047-3.546V19.109h3v10.464a2.5 2.5 0 0 0 1.843 2.412 38.059 38.059 0 0 0 9.994 1.336 38.069 38.069 0 0 0 10-1.336 2.5 2.5 0 0 0 1.842-2.412V19.109h4.268a3.4 3.4 0 0 0 3.394-3.395 3.4 3.4 0 0 0-3.393-3.394zm-31.494 25.952a1.076 1.076 0 0 1-.949.548 1.076 1.076 0 0 1-.949-.548 1.076 1.076 0 0 1 0-1.1l.949-1.644.949 1.644a1.079 1.079 0 0 1 0 1.1zm24.226-9.083a35.093 35.093 0 0 1-17.675 0v-10.08h17.675zm7.268-13.08h-32.211a.4.4 0 0 1-.4-.395.394.394 0 0 1 .4-.394h32.211a.393.393 0 0 1 .394.394.394.394 0 0 1-.394.395z" style="fill:#FFFFFF" transform="translate(58.549)"/>
</svg>
