<svg id="interests-t" xmlns="http://www.w3.org/2000/svg" width="48" height="48" viewBox="0 0 48 48">
    <defs>
        <style>
            .cls-2{fill:#313c4e}
        </style>
    </defs>
    <g id="Group_674" data-name="Group 674">
        <path id="Path_2774" data-name="Path 2774" class="cls-2" d="M31.806 33.264H16.174a3.5 3.5 0 0 1-3.5-3.474c-.051-9.2 1.051-15.113 3.366-18.09 3.029-3.893 6.139-3.635 7.811-3.494.175.014.337.029.486.035a8.128 8.128 0 0 0 .963-1.006c1.03-1.186 2.433-2.812 4.5-2.449a1.5 1.5 0 0 1 1.231 1.626c-.068.721-.04 3.015.956 4.011a28.086 28.086 0 0 0 3.085 2.268c1.326.9 2.7 1.831 3.737 2.711a3.515 3.515 0 0 1 .575 4.72l-1.2 1.657a3.5 3.5 0 0 1-4.53 1.015l-1.387-.767a2.774 2.774 0 0 0-2.4.055l3.5 3.067c.028.024.055.05.08.076a6.432 6.432 0 0 1 1.853 4.539 3.5 3.5 0 0 1-3.494 3.5zm-9.2-22.123c-1.234 0-2.609.358-4.2 2.4-1.86 2.391-2.78 7.853-2.734 16.232a.49.49 0 0 0 .5.49h15.634a.5.5 0 0 0 .5-.5 3.454 3.454 0 0 0-.961-2.4l-6.8-5.964a4.29 4.29 0 0 1-.365-.325 1.5 1.5 0 0 1 2.046-2.192l.271.238a2.227 2.227 0 0 0 1.114.523 5.262 5.262 0 0 0 .907-.269 5.979 5.979 0 0 1 5.2.025l1.388.767a.5.5 0 0 0 .647-.145l1.2-1.658a.492.492 0 0 0-.08-.671c-.921-.779-2.224-1.665-3.486-2.522a27.488 27.488 0 0 1-3.52-2.628 6.888 6.888 0 0 1-1.754-3.95c-.195.21-.381.426-.536.6-.87 1.006-1.769 2.046-3.1 2.046-.257 0-.547-.022-.867-.049s-.658-.048-1-.048z"/>
        <path id="Path_2775" data-name="Path 2775" class="cls-2" d="M33.772 43.264h-19.6a3.5 3.5 0 0 1-3.5-3.5v-2a3.5 3.5 0 0 1 3.5-3.5h19.6a3.5 3.5 0 0 1 3.5 3.5v2a3.5 3.5 0 0 1-3.5 3.5zm-19.6-6a.5.5 0 0 0-.5.5v2a.5.5 0 0 0 .5.5h19.6a.5.5 0 0 0 .5-.5v-2a.5.5 0 0 0-.5-.5z"/>
    </g>
</svg>
