<svg xmlns="http://www.w3.org/2000/svg" width="48" height="48" viewBox="0 0 48 48">
    <defs>
        <style>
            .cls-2{fill:#313c4e}
        </style>
    </defs>
    <g id="languages-t" transform="translate(62.904)">
        <g id="Group_677" data-name="Group 677">
            <path id="Path_2778" data-name="Path 2778" class="cls-2" d="M-31.151 28.253V8a3.5 3.5 0 0 0-3.5-3.5H-54.9A3.5 3.5 0 0 0-58.4 8v20.253a3.5 3.5 0 0 0 3.5 3.5h4.236l.049 4.284a2.471 2.471 0 0 0 1.503 2.263 2.513 2.513 0 0 0 1 .211 2.481 2.481 0 0 0 1.681-.663l6.643-6.1h5.134a3.5 3.5 0 0 0 3.503-3.495zm-9.218.5a1.5 1.5 0 0 0-1.014.4l-6.249 5.736-.053-4.648a1.5 1.5 0 0 0-1.5-1.483H-54.9a.5.5 0 0 1-.5-.5V8a.5.5 0 0 1 .5-.5h20.253a.5.5 0 0 1 .5.5v20.253a.5.5 0 0 1-.5.5z"/>
            <path id="Path_2779" data-name="Path 2779" class="cls-2" d="M-23.032 22.589h-3.619a1.5 1.5 0 0 0-1.5 1.5 1.5 1.5 0 0 0 1.5 1.5h3.619a.5.5 0 0 1 .5.5v10.363a.5.5 0 0 1-.5.5h-1.42a1.5 1.5 0 0 0-1.5 1.5v1.5l-3.489-2.69a1.5 1.5 0 0 0-.916-.312h-3.42a.5.5 0 0 1-.5-.5v-.2a1.5 1.5 0 0 0-1.5-1.5 1.5 1.5 0 0 0-1.5 1.5v.2a3.505 3.505 0 0 0 3.5 3.5h2.909l3.887 3a2.493 2.493 0 0 0 1.523.521 2.506 2.506 0 0 0 1.1-.258 2.485 2.485 0 0 0 1.4-2.239v-1.023a3.5 3.5 0 0 0 3.423-3.5V26.088a3.5 3.5 0 0 0-3.497-3.499z"/>
            <path id="Path_2780" data-name="Path 2780" class="cls-2" d="M-38.534 15.141a1.5 1.5 0 0 0 1.5-1.5 1.5 1.5 0 0 0-1.5-1.5h-4.025l-1.3-2.526a1.5 1.5 0 0 0-2.021-.645 1.5 1.5 0 0 0-.645 2.021l.593 1.15h-3.781a1.5 1.5 0 0 0-1.5 1.5 1.5 1.5 0 0 0 1.5 1.5h.438a26.526 26.526 0 0 0 2.637 5.051 18.608 18.608 0 0 1-5.129 4.46 1.5 1.5 0 0 0-.549 2.049 1.5 1.5 0 0 0 1.3.75 1.486 1.486 0 0 0 .748-.2 21.337 21.337 0 0 0 5.493-4.611 21.321 21.321 0 0 0 5.493 4.611 1.486 1.486 0 0 0 .748.2 1.5 1.5 0 0 0 1.3-.75 1.5 1.5 0 0 0-.548-2.049 18.542 18.542 0 0 1-5.124-4.466 26.518 26.518 0 0 0 2.632-5.045zm-7.481 0h2.482a24.331 24.331 0 0 1-1.239 2.367 24.456 24.456 0 0 1-1.243-2.367z"/>
        </g>
    </g>
</svg>
