<svg width="458" height="302" fill="none" xmlns="http://www.w3.org/2000/svg"><g opacity=".76"><mask id="a" maskUnits="userSpaceOnUse" x="1" y="0" width="456" height="302"><path fill-rule="evenodd" clip-rule="evenodd" d="M1.246.623h454.975v300.555H1.246V.623z" fill="#fff"/></mask><g mask="url(#a)"><path fill-rule="evenodd" clip-rule="evenodd" d="M420.708 154.979l-12.615 17.133 16.045-9.352c15.412 36.256 27.605 83.224 32.083 138.418H266.527l-35.821-24.629a7.322 7.322 0 0 0-7.08-.655 7.235 7.235 0 0 0-4.325 6.606c0 .396.041.801.106 1.206l.349 2.113-4.096-1.643c-5.048-2.016-10.754.616-12.486 5.749a9.307 9.307 0 0 0-.496 3.004c0 3.448 1.927 6.622 4.91 8.249H13.05S.043 263.586 1.336 235.006l23.092 8.444-21.49-20.371c1.779-7.27 5.12-13.18 10.696-16.589 18.273-11.165 41.512 20.2 41.512 20.2-6.446-28.88-8.55-59.46-7.348-83.094l16.127 9.15-15.265-20.242c1.251-11.684 3.478-20.808 6.486-25.908 8.575-14.535 28.693-8.786 36.285 8.282-1.918-17.092-2.316-39.017.138-59.08l13.998 5.116-12.982-12.298c1.228-7.554 2.902-14.712 5.097-21.076l13.664 7.749-10.973-14.55c4.901-10.768 11.77-18.257 21.117-19.91 11.965-2.12 25.329 12.219 38.253 33.601L147.186 51.07l16.72-9.49c29.742 52.911 56.07 138.306 56.07 138.306 1.415-28.039 29.075-34.394 38.951 49.583-5.494-66.53 32.328-79.686 46.821-35.811-.326-8.826-.529-27.674 2.292-47.624l18.492 6.761-16.964-16.08c1.26-6.672 2.91-13.311 5.047-19.593l17.696 10.039-14.232-18.873c5.055-11.262 12.119-20.606 21.93-25.707 18.159-9.44 44.243 8.137 67.28 46.686l-9.43 18.638 13.623-11.328a271.921 271.921 0 0 1 9.226 18.403zm-207.089 115.62a2.691 2.691 0 1 0 0 5.383 2.691 2.691 0 1 0 0-5.383z" fill="#DDE3F0"/></g></g><path d="M413.575 208.144a31.35 31.35 0 0 0 .158-11.425.519.519 0 0 0-.831-.307c-3.878 3.188-6.603 7.099-8.176 11.733l8.849-.001zm-13.928 51.961l1.276 22.322c.043.759.241 1.501.582 2.18l6.893 13.731a5.166 5.166 0 0 0 4.619 2.843h1.537a1.37 1.37 0 0 0 1.292-1.839l-6.093-16.636a5.57 5.57 0 0 1-.298-2.597l2.847-22.939-12.655 2.935zm-61.497-18.174l-2.118 18.56a8.406 8.406 0 0 1-2.746 5.015l-6.466 5.706a8.434 8.434 0 0 0-2.197 3.063l-8.487 20.299a4.802 4.802 0 0 0 1.124 5.333l.332.317a2.26 2.26 0 0 0 3.455-.412l8.001-12.434a8.445 8.445 0 0 1 4.547-3.479l9.455-3.001a8.405 8.405 0 0 0 3.873-2.569c3.101-3.657 9.46-12.012 9.274-18.826-.517-19.024-18.047-17.572-18.047-17.572" fill="#0F141F"/><path d="M395.633 229.697c-3.749-1.067-34.277-4.268-39.633-4.268-5.356 0-22.495 4.268-16.603 21.339 3.783 10.959 7.344 16.495 9.409 19.053 1.038 1.285 1.132 3.089.274 4.501l-3.079 5.066a3.952 3.952 0 0 0 .002 4.109l11.995 19.69a4.167 4.167 0 0 0 3.558 1.995h1.438c.787 0 1.355-.753 1.133-1.506l-5.72-19.503a3.957 3.957 0 0 1 1.541-4.36l9.28-6.461a3.955 3.955 0 0 0 1.557-4.302l-3.878-14.014s19.085 13.336 25.512 13.336 19.817-.532 25.173-16.538c5.355-16.003 4.523-40.533 4.523-40.533l-17.738-2.813a2.331 2.331 0 0 0-1.934.576l-1.168 1.06c-.824.748-.821 1.225-1.93 1.11l-11.83-2.756a.96.96 0 0 0-1.146.921l-.042 4.534c-.054 2.68 1.572 3.27 4.085 4.23l-.868 2.748a2.053 2.053 0 0 0 .975 2.344l7.792 4.04-2.678 6.402z" fill="#A86D4F"/><path d="M390.334 214.584s4.505 1.524 10.376 1.465" stroke="#0F141F" stroke-width=".853"/><path d="M403.667 248.368l4.826 17.915a4.664 4.664 0 0 0 5.14 3.4l14.135-1.934 1.906 2.039a6.404 6.404 0 0 0 6.92 1.623 2.142 2.142 0 0 0 1.091-3.113l-4.977-8.261a3.517 3.517 0 0 0-3.461-1.671l-11.143 1.421-.512-18.354-13.925 6.935zm18.268-39.388c.752-3.808.804-7.617.157-11.425a.519.519 0 0 0-.83-.307c-3.878 3.189-6.604 7.1-8.177 11.734l8.85-.002zm-68.174 20.376c-13.814-7.333-21.332-24.832-26.269-41.467-.411-1.384-2.391-1.354-2.754.043-2.943 11.289-7.241 39.111 21.027 41.373 1.668.229 7.996.051 7.996.051" fill="#A86D4F"/><path d="M398.311 223.295c7.194 2.657 12.132 6.53 15.416 14.918a1.407 1.407 0 0 1-.625 1.725 1.416 1.416 0 0 1-1.803-.339c-1.863-2.308-7.28-8.131-15.666-9.903l2.678-6.401z" fill="#8A5941"/><path d="M386.368 205.399l-.038 4.098c1.548-.277 2.722.214 3.509-.809.496-.646.817-2.458 1.068-3.42l-3.392-.791a.962.962 0 0 0-1.147.922m-12.089 50.559l-7.483-15.242a1.37 1.37 0 0 0-1.051-.756 1.371 1.371 0 0 0-1.506 1.732l2.668 9.344 7.372 4.922z" fill="#0F141F"/><path d="M327.492 187.889c-.411-1.384-2.39-1.354-2.754.043-1.688 6.478-3.811 18.394.017 27.806 3.849 1.044 8.554.492 12.846-3.127-4.374-7.485-7.584-16.212-10.109-24.722m110.192 80.409l-4.977-8.261a3.52 3.52 0 0 0-3.461-1.672l-2.804.358c-1.887 2.264-3.496 5.419-3.869 9.736l5.195-.711 1.906 2.04a6.402 6.402 0 0 0 6.919 1.623 2.13 2.13 0 0 0 1.005-.789l.316-.698a2.113 2.113 0 0 0-.23-1.626" fill="#8A5941"/><path d="M404.667 209.166c-.171.717-.66 1.215-1.091 1.113-.432-.103-.643-.766-.472-1.484.171-.716.66-1.214 1.091-1.112.432.103.643.766.472 1.483m-131.252 90.605l.722 1.091c.216.326.693.458.99.204 9.221-7.878 16.442-17.351 21.902-28.281.161-.323-.055-.72-.383-.87l-1.04-.475a.707.707 0 0 0-.853.208l-21.307 27.302a.705.705 0 0 0-.031.821" fill="#0F141F"/><path d="M159.988 122.022l-17.49-10.592a1.607 1.607 0 0 0-2.195.524l-5.406 8.699a1.593 1.593 0 0 0 .401 2.118l.97.724-17.139 29.875 23.03 15.471 17.829-46.819z" fill="#A86D4F"/><path d="M136.268 123.495l12.492 7.317-6.245 29.65-1.488-2.328c-.979-1.533-2.15-3.791-3.09-6.168-1.55-3.92-1.54-8.284-.033-12.221l1.041-2.721c1.351-3.525.495-7.646-2.434-10.037a8.937 8.937 0 0 0-.667-.496l-.934-.629 1.358-2.367z" fill="#0F141F"/><path d="M150.334 137.709s-24.459 44.278-28.208 64.016c-6.963-5.334-47.93-20.353-47.93-20.353l-5.711 13.297s52.57 38.531 57.926 40.665c5.356 2.134 8.034-1.066 9.105-4.268 5.355-4.801 38.562-61.882 38.562-61.882l-23.744-31.475z" fill="#0F141F"/><path d="M204.446 89.118l3.703-8.51a23.464 23.464 0 0 0 1.891-11.026l-.763-10.753 21.565-6.331s1.157 9.149 4.655 16.297a.773.773 0 0 1-.275.998c-1.452.91-3.059 1.33-3.059 1.33l.679 9.578c3.08 1.806 1.92 5.695-1.494 5.332-2.429-.26-8.964-1.386-8.964-1.386l-5.391 14.3c-9.93 2.884-13.129-1.446-12.547-9.83" fill="#FFA078"/><path d="M206.059 85.387l12.992 8.098-2.054 5.477-13.436-9.297 2.498-4.278z" fill="#317AE8"/><path d="M234.118 45.082l-26.783 9.07c-.153 5.405.645 14.359 2.605 19.816l.855-.17c.882-.177 2.505-1.167 4.252-2.386.726-.506.999-1.44.682-2.262a3.934 3.934 0 0 1-.252-1.131c-.134-1.91.476-4.066 2.147-4.184 1.163-.082 2.685.969 3.406 2.146a.595.595 0 0 0 .887.143l.008-.006a.594.594 0 0 0 .215-.44l.148-5.091 9.377-3.495c4.394-2.02 4.842-8.546 2.453-12.01" fill="#0F141F"/><path d="M207.654 57.001l38.348-11.682c.62-.168.347-2.142-.457-1.957l-9.355 2.794 1.097-8.569c.132-1.029-.867-1.854-1.851-1.515-10.674 3.67-20.514 8.982-29.745 15.49a1.32 1.32 0 0 0-.511 1.43l.85 3.086c.193.701.92 1.114 1.624.923" fill="#4B8EF4"/><path d="M147.998 126.874c-.535 1.067-14.949 18.646-4.82 37.344 7.471 13.79 29.526 42.502 57.615 60.864 25.613 33.97 52.891 52.192 52.891 52.192l15.891-2.628-44.989-58.681-43.171-60.617a2.25 2.25 0 0 1 .036-2.662l1.36-1.806-34.813-24.006z" fill="#505D7F"/><path d="M147.998 126.874l34.813 24.006s2.544 1.653 4.82 0c6.105-4.432 23.676-22.134 23.676-22.134s2.486.966 4.422-.896c0 0 4.912-4.41 6.179-5.777 14.812 9.454 35.616 18.938 35.616 18.938s7.443 7.052 8.871.83l18.745-46.624-8.932-4.158-18.918 29.977-16.101-10.7-42.001-25.938a32.553 32.553 0 0 0-15.125-4.793l-38.446-5.989s-4.641-3.678-7.854 1.656c-5.682 9.265-22.251 35.926-22.251 35.926L123.01 116l22.607-24.246 27.018 6.846s-14.616 9.527-23.298 22.659c-2.41 3.645-1.339 5.615-1.339 5.615" fill="#4B8EF4"/><path d="M148.761 122.227l40.652 27.336c.84-.631 1.208-1.184 2.138-1.903l-41.017-28.131c-.408.57-.81 1.145-1.197 1.73-.223.338-.409.658-.576.968" fill="#3BF"/><path d="M147.998 126.874c33.141 2.946 55.032-5.947 76.108-27.238a1.26 1.26 0 0 1 1.621-.15l3.062 2.149c.615.431.722 1.304.221 1.861-19.12 21.232-44.325 34.314-84.359 28.513l3.347-5.135zm81.147-53.223c-1.077-.073-2.003-.604-2.753-1.294-.739-.696-1.322-1.649-1.425-2.748a.504.504 0 0 1 .453-.551.505.505 0 0 1 .555.451.425.425 0 0 1 .002.036c.022.795.419 1.594 1.011 2.22.586.62 1.383 1.118 2.201 1.219l.021.002a.334.334 0 0 1 .291.372.335.335 0 0 1-.356.293m1.163-7.853c-.096.73-.53 1.276-.97 1.218-.44-.056-.719-.695-.623-1.425.096-.73.53-1.277.969-1.22.44.058.72.697.624 1.427m-7.924 18.849l-5.038-1.637a1.23 1.23 0 1 0-1.201 2.091l4.554 4.016 1.685-4.47zm-49.749 13.952l5.078.706c1.87.259 2.914 2.292 2.029 3.954a2.705 2.705 0 0 1-1.611 1.325c-4.24 1.279-19.159 5.223-19.159 5.223 4.877-4.715 9.386-8.312 13.663-11.208m63.553-52.444l-3.889 1.03c-1.424.376-2.27-1.533-1.032-2.33l5.548-3.573-.627 4.873z" fill="#0F141F"/><path d="M293.36 269.799a1.465 1.465 0 0 0-2.217.458c-3.654 6.903-12.603 11.32-13.909 11.822l-.148.055-11.035-12.088-8.292 10.851 9.406 8.598c1.306 4.86 5.971 9.854 5.971 9.854 16.434-14.42 21.961-28.142 21.961-28.142l-1.737-1.408z" fill="#A86D4F"/><path d="M279.479 293.292c-4.048-6.527-12.314-3.797-12.314-3.797.192.649.413 1.262.647 1.852 1.772 4.198 5.323 8.001 5.323 8.001a103.98 103.98 0 0 0 6.344-6.056" fill="#8A5941"/><path d="M58.548 169.369l-.703-1.106c-.21-.331-.67-.462-.983-.226-9.445 7.134-18.262 18.394-23.863 29.994-.157.324.041.717.367.873l1.026.493a.709.709 0 0 0 .861-.195l23.25-29.017a.702.702 0 0 0 .045-.816" fill="#0F141F"/><path d="M36.61 201.083a1.465 1.465 0 0 0 2.225-.414c3.788-6.83 14.232-13.21 15.546-13.687l.15-.053 13.953 7.74 5.71-13.297-8.58-2.814c-1.21-4.885-6.797-8.764-6.797-8.764C42.74 183.699 34.9 199.642 34.9 199.642l1.71 1.441z" fill="#A86D4F"/><path d="M277.085 282.134l1.148 1.848c4.263-1.604 7.696-3.877 10.266-6.846l-1.233-1.85c-2.703 2.68-6.126 4.945-10.181 6.848M54.381 186.982l-1.19-1.897c-4.624 2.319-7.491 4.365-10.834 7.925l1.474 1.623c3.822-3.506 6.635-5.506 10.55-7.651" fill="#0F141F"/><path d="M52.854 175.393s4.197 5.873 12.761 3.165c-1.511-5.609-6.798-8.764-6.798-8.764-2.085 1.371-5.963 5.599-5.963 5.599" fill="#8A5941"/><path d="M266.043 270.029l-8.293 10.889-4.058-3.624 9.02-11.629 3.331 4.364z" fill="#0F141F"/><path d="M281.793 81.694v2.446s2.906 1.915 2.424 5.142c-.238 1.592-1.64 3.528-3 5.08l2.692 1.56c4.257-2.204 9.202-7.288 11.228-9.483a1.98 1.98 0 0 0 .299-2.264l-2.78-5.32-.127-5.495-10.736 8.334z" fill="#FFA078"/><path fill="#D3E9FD" d="M320.37 72.855l-9.166-19.604-36.157 16.882 9.166 19.603z"/><path d="M311.267 53.285l-13.559 18.21-22.721-1.325 36.28-16.885z" fill="#ADD8FF"/><path d="M281.793 84.14v-2.446l.118-1.987a5.522 5.522 0 0 0-.018-.882l-.147-1.449a1.868 1.868 0 0 0-2.497-1.562l-.665 3.644a5.341 5.341 0 0 1-.181.715l-2.142 6.581-.058 4.704 5.014 2.904c1.36-1.552 2.762-3.487 3-5.08.482-3.227-2.424-5.142-2.424-5.142" fill="#FFA078"/><path d="M276.209 91.06l-18.919 29.976-16.101-10.699-5.437-3.359-4.493-2.774a5.242 5.242 0 0 1 .423 7.646l-9.774 10.224c14.812 9.453 35.616 18.937 35.616 18.937s7.443 7.052 8.871.831l18.745-46.624-8.931-4.159z" fill="#3D76CC"/><path fill="#2196F3" d="M205.595 109.669l-1.923 1.243 7.807 12.065 1.923-1.243z"/><path fill-rule="evenodd" clip-rule="evenodd" d="M201.934 112.343l-1.978 1.157 7.265 12.399 1.977-1.157-7.264-12.399z" fill="#2196F3"/><path d="M128.775 109.818l-8.769-5.875-4.486 7.247 7.497 4.817 5.758-6.189z" fill="#3BF"/><path d="M276.224 91.05l-3.937 6.258 10.027 4.904 2.813-7.008-8.903-4.154zm23.962-17.37a3.317 3.317 0 0 1-4.67.282 3.285 3.285 0 0 1-.285-4.651 3.316 3.316 0 0 1 4.669-.283 3.286 3.286 0 0 1 .286 4.651" fill="#2196F3"/><path d="M172.635 151.615l8.17 1.73v1.253l-7.261 2.925m30.358 60.19l-3.842 6.954 1.204 1.237 6.612-3.304M141.835 86.033l3.782 5.72v-6.352" stroke="#0F141F" stroke-width=".853"/><path d="M257.797 121.036l-.04 5.838a.466.466 0 0 1-.932 0l-.04-5.838a.502.502 0 0 1 .502-.507.504.504 0 0 1 .51.5v.007z" fill="#0F141F"/><path d="M101.536 117.964l-.577-2.782a1.285 1.285 0 0 1 .83-1.471l3.79-1.355a1.836 1.836 0 0 1 1.811.332l2.684 2.292-8.538 2.984z" fill="#FFA078"/><path d="M123.011 116l-7.499-4.802-1.849.106a10.847 10.847 0 0 0-4.313 1.17l-7.483 4.284a.884.884 0 0 0-.33 1.206l1.041 1.83-1.477 1.064a.886.886 0 0 0-.262 1.14l.974 1.799 1.178-.302 1.161 2.148a.893.893 0 0 0 1.147.389l1.384-.615 1.496 2.278a.891.891 0 0 0 1.183.287l8.736-4.93 4.913-7.052z" fill="#FFA078"/><path d="M134.612 73.094c.285-.545.614-1.06.924-1.588l.49-.773.254-.38.302-.412a6.21 6.21 0 0 1 3.445-2.133 6.272 6.272 0 0 1 4.024.413 47.62 47.62 0 0 1 3.268 1.676.35.35 0 0 1 .132.477.352.352 0 0 1-.396.165 47.387 47.387 0 0 1-3.512-1.078 5.714 5.714 0 0 0-3.158-.143 5.77 5.77 0 0 0-2.734 1.556l-.275.296-.294.349-.605.687c-.421.446-.823.905-1.268 1.333a.377.377 0 0 1-.533-.009.374.374 0 0 1-.064-.435m124.879 73.363c.592.075 1.168.201 1.753.305l.864.186c.258.049.514.099.773.112a5.61 5.61 0 0 0 2.978-.564c.922-.444 1.693-1.166 2.249-2.045l.197-.339.207-.389.421-.777c.299-.51.576-1.029.898-1.529a.353.353 0 0 1 .487-.106.352.352 0 0 1 .15.387c-.156.573-.357 1.126-.534 1.689l-.294.834-.151.414-.196.449a6.068 6.068 0 0 1-2.728 2.795 6.031 6.031 0 0 1-3.881.583 7.425 7.425 0 0 1-.953-.255l-.829-.324c-.543-.237-1.093-.451-1.628-.715a.376.376 0 0 1-.17-.505.378.378 0 0 1 .387-.206" fill="#2196F3"/></svg>