<svg width="147" height="180" fill="none" xmlns="http://www.w3.org/2000/svg"><g clip-path="url(#a)"><path d="M105.8 56.8a5.9 5.9 0 0 0-4.3-3.2c-2.1-.4-4.7.1-6.3 1.7A24.3 24.3 0 0 1 75 46.7a22 22 0 0 1-1.9-3c-.2-.5-.4-1-.5-1.7a1.2 1.2 0 0 0-.7-.9.8.8 0 0 0-1 .1 24 24 0 0 0-5.8 20.5L57 71.4a.8.8 0 0 0 .1 1.2c.7.4 1.7.2 2.4.2h6.7c1 3.1 2 6.2 3.4 9a11 11 0 0 0 14 5.2c3-1.2 5.4-3.5 6.8-6.4v-.4c1.5-3.9 3.6-7.8 7.3-9.8h.5l3.5-1.1c1-.3 2-.9 2.8-1.5.6-.7 1-1.4 1.3-2.2.6-1 1-2 1.2-3.2.1-2-.3-3.9-1.2-5.6Z" fill="#FFB59B"/><path d="m101.4 70.2-.8-5.9c-.2-1-1.7-.5-1.5.4v.7L84.9 86h-.6c-1-.1-1 1.4 0 1.5 3.5.2 6.7 1.6 9.9 3 2.9 1.2 5.8 2.3 8.6 3.7.5.3 1.3 0 1.2-.6l-2.5-23.4Z" fill="#FFB59B"/><path d="M83.8 88.4a22 22 0 0 0 9.6-6.9c2.5-3.2 3.4-7.2 3.5-11.2 0-1.3-2.1-1.3-2.2 0 0 3.6-.9 7.2-3 10a20.7 20.7 0 0 1-8.4 6 1.1 1.1 0 0 0-.8 1.3 1 1 0 0 0 1.3.8Z" fill="#182B81"/><path d="M124.9 128c.4-2.6 1-5.2 1.2-7.7.2-2.2.5-4.7-.3-6.7-.9-2.1-2.5-3.6-3.2-5.6a20.2 20.2 0 0 0-8.5-10.4c-4.5-3-9.8-4.6-14.8-6.3l-6.9-2.6a37 37 0 0 0-6.7-2 73.3 73.3 0 0 0-13.7.7c-2.1.4-4.1 1-6 1.9-1.9.8-3.6 2-5 3.4a38.2 38.2 0 0 0-8.2 13.7c-.3 1.2-.4 2.6-.5 3.9a113.7 113.7 0 0 0 0 22.8c.4 3.2.8 6.4 1.9 9.4 1.5 4 3.3 7.7 5.5 11.3 1.5 2.6 3.1 5.6 6 6.9 4.1 1.8 8.8 1 13 1.5h3.6l3.6-1c2.4-1 4.6-2.2 7-3 2.5-.6 5-.8 7.5-.3 2.3.4 4.7.9 7 .6a9 9 0 0 0 3.2-1l2.9-1.7c1.8-.7 3.7-1 5.6-1.3 1.6-.4 3.3-.8 4.5-2 1-1 1.7-2.5 1.7-4s-.2-3-.4-4.4l-.9-5.4c-.2-1.2-.3-2.3-.3-3.5a57 57 0 0 1 1.2-7.2Z" fill="#BCBBE3"/><path d="m98.4 58.4-2 4.2a1.1 1.1 0 0 0 0 1 1 1 0 0 0 1 .6 21.6 21.6 0 0 0 5.2-1 1 1 0 0 0 .2-1.6 1 1 0 0 0-1.1-.3l-2.3.5h-.9l-1.1.2 1 1.6 1.9-4.2a1.1 1.1 0 0 0-.4-1.5 1.1 1.1 0 0 0-1.5.4ZM69.3 64c0-.2-.2.2 0 0l.3-.4s.1-.2 0 0l.1-.2.4-.4a7 7 0 0 1 1.9-1.4c.7-.4 1.5-.6 2.2-.5.9.2 1.7.6 2.3 1.2 1 1 2.5-.5 1.5-1.5a6 6 0 0 0-3.2-1.8c-1.3-.2-2.5 0-3.6.6-1 .5-1.8 1-2.6 1.8-.6.6-1 1.3-1.4 2.1a1 1 0 0 0 1.2 1.5 1 1 0 0 0 .9-1Z" fill="#182B81"/><path d="M74.3 59c-1.8.3-3 2.3-2.9 4a4 4 0 0 0 2.9 3.8c.8.3 1.6.2 2.4-.2.8-.3 1.4-1 1.8-1.7a4 4 0 0 0 0-3.6 3.7 3.7 0 0 0-3.7-2.3 1.1 1.1 0 0 0-1.1 1 1 1 0 0 0 1 1.2h.5c.1 0 .1 0 0 0h.3s.3.1.2 0c-.2 0 0 .1 0 .1l.3.2s.2 0 0 0l.1.1.2.1h-.1a4.2 4.2 0 0 1 .4.7c0 .1 0 .1 0 0l.1.5v.2-.1.5-.2.4c0 .2 0 0 0 0l-.2.3v.1c-.1.2.1-.1 0 0l-.4.4s-.2.2-.1 0l-.1.2h-.2c-.2.2 0 0 0 0l-.3.2s.2 0 0 0h-.2c-.3 0 .1 0 0 0H75l-.4-.2h.2-.3l-.2-.2c-.2-.1-.2-.1 0 0l-.3-.3-.2-.1s.2.2 0 0l-.1-.4c0 .3 0 0 0 0l-.1-.3c0-.2 0-.2 0 0v-.6s0-.3 0 0l.1-.5s.1-.3 0-.1l.1-.2.1-.2.1-.1.4-.4s.1 0 0 0l.3-.1s.1 0 0 0l.3-.1a1 1 0 0 0 .7-1.4 1.1 1.1 0 0 0-1.3-.7Zm-5.5-.4.7-.6c.1-.1-.1 0 0 0l.2-.1.3-.3 1.5-.7c1.3-.4 2.7-.4 3.9 0 1.3.4 2-1.7.6-2a8.3 8.3 0 0 0-5 0 9.7 9.7 0 0 0-3.8 2.2c-1 1 .5 2.5 1.6 1.5Zm.2 20.5a9 9 0 0 0 5.1-4.1 1 1 0 0 0-1.6-1.5 1 1 0 0 0-.2.4l-.4.5-.1.2s-.2.2 0 0l-.1.1-.1.2-1 1-.3.2c0-.1.2-.1 0 0h-.1a8.7 8.7 0 0 1-1.2.8h-.2s-.2 0 0 0h-.1l-.2.1a1.1 1.1 0 0 0-.8 1.4 1 1 0 0 0 1.4.7Zm27-7.8a22.9 22.9 0 0 0 6-1.2 1 1 0 0 0 .1-1.5 1 1 0 0 0-.7-.4 1 1 0 0 0-.4 0l-2.6.7h-.6l-.2.1h-.3l-1.3.2a1 1 0 0 0-1 1 1 1 0 0 0 1 1.1Z" fill="#182B81"/><path d="M132.2 46.7a1179 1179 0 0 0-1.2-32.3l-.1-.1c-.5-.4-1.2-.3-1.8-.3h-8.6a1138.7 1138.7 0 0 0-104.2 6.5.8.8 0 0 0-.8.7c-.2 2-.1 3.9-.1 5.8v7.3l-.2 14.2-.2 28.7-.5 57a24927.7 24927.7 0 0 1-.2 24v7.5a.8.8 0 0 0 .4 1h.3c15.2 0 30.4-.3 45.5-1 14.5-.5 28.9-1.3 43.3-2a3574.4 3574.4 0 0 1 26.3-1.4l.2-.6a2763 2763 0 0 0 1.8-57.3c.3-19.2.4-38.5.1-57.7Zm-14.8 102.8c-.2 0-.1 0 0 0Zm.3-9.5c0 3.2-.2 6.3-.3 9.5h-.4l-2.3.1-4.4.3-8.8.5-17.9 1.3c-12 .8-24.1 1.5-36.2 1.7-6.3 0-12.6 0-18.9-.4l-.5-22.6a972.9 972.9 0 0 1 .2-47.8 2792 2792 0 0 1 1.6-47.5L30 33a497.1 497.1 0 0 1 65.3-5.4l22.2-.2.8 22.8c.2 13.6.5 27.1.4 40.7 0 7.8-.2 15.5-.6 23.3-.3 8.6 0 17.2-.3 25.8Z" fill="#F38360"/><path d="M28 33.1c0 15.6-.2 31.2-.4 46.7l-.5 46.7-.1 26.3c0 1.4 2.2 1.4 2.2 0 0-15.6.1-31.1.3-46.7l.5-46.7.1-26.3c0-1.4-2.1-1.4-2.1 0Z" fill="#182B81"/><path d="M29 33.7c11.3-1.1 22.6-2.2 34-3a808.7 808.7 0 0 1 54.5-2.2c1.4 0 1.4-2.2 0-2.2A939 939 0 0 0 28.3 32a1 1 0 0 0-.3.7 1 1 0 0 0 1 1.1Zm114.6 8c.9-1.7.1-3.6-1-5a9.6 9.6 0 0 0-3.8-3c-3.8-1.6-8-.9-11.8.4a34 34 0 0 0-11 6c-3.5 2.5-7.1 4.7-10.7 7h-.1a24 24 0 0 0-2.3-6.8c-1.9-3.3-5.5-5-9-5.8-3.4-.8-7.2-1.1-10.7-.3a29.6 29.6 0 0 0-13.8 8.2v.9a19 19 0 0 0 6.2 9.3c2.6 2.2 5.7 3.7 9 4.5 2.3.5 4.6.9 6.9 1 .7 0 1.1-.5 1.6-1l3-2 .6-.5h.2l.3-.2c1.2-.3 2.5-.7 3.7-.6.8.2 1.5.5 2.1 1a7 7 0 0 1 1.9 1.5c.4.6 1.5.5 1.4-.4a54 54 0 0 0-.3-3.5l.7.2 3 .2c1.9 0 3.7.5 5.4 1 3.4 1.3 6.7 3 10.4 3.8 1.9.3 3.8.5 5.7.5 2 .1 3.9-.1 5.8-.7 1.4-.5 2.8-1.3 4-2.3 1-1.2 2.1-2.8 1.8-4.4a6.7 6.7 0 0 0-3.4-4c-.9-.4-1.8-.6-2.8-.8l2.7-1c1.5-.7 3.5-1.6 4.3-3.2Zm-38 6.5.2 2.5-.1-.6a83.5 83.5 0 0 0 0-1.9Z" fill="#182B81"/><path d="M106 47.4c.5 2 .3 2.7.5 4.8l-.5-4.8Z" fill="#5755D0"/><path d="m105.3 47.6.1.7v.4l.2 1 .1 2.4a.8.8 0 0 0 .8.8c.4 0 .8-.3.8-.8l-.2-2.4a13.3 13.3 0 0 0-.5-2.8.8.8 0 0 0-1-.2.8.8 0 0 0-.4.5v.4Z" fill="#BCBBE3"/><path d="M59.2 46.2c-.7-1.6-2.2-2-3.8-2a.7.7 0 0 0-.6.3 55 55 0 0 0-2.2-6.8l-.7-1c-1.3-1.4-3.6-1.3-5.3-1-2 .3-4 .9-5.9 1.8-1.5.8-2.9 2-4 3.3-1 1-2 2.2-1.7 3.6l1.2 5.4 2.1 8c-1.5 2.5-2.7 5.2-4.5 7.5a.8.8 0 0 0 .1 1.2 510.3 510.3 0 0 1 6.3 4.5l1.5 1c.4.3.8.6 1.3.2l.8-1.3 1.4-2.6a29 29 0 0 1 2.5-4.2l2.4-3.2c1-.4 2-1 3-1.7l1.7-2c.4-.7.8-1.4 1-2.1.8-1.7 1.9-3 2.8-4.6.8-1.4 1.3-2.8.6-4.3Z" fill="#FFB59B"/><path d="M40.1 44.1c3.1.5 6.2.1 9.1-1.1a1 1 0 0 0 .4-1.5 1.1 1.1 0 0 0-1.5-.4l-.3.2-.5.1a12.8 12.8 0 0 1-2.8.6c-1.2.2-2.5.2-3.8 0a1.1 1.1 0 0 0-1.3.8 1 1 0 0 0 .7 1.3Z" fill="#182B81"/><path d="M44.3 43.2c-.3 1-.5 2-.5 3a3.4 3.4 0 0 0 .8 2.8c.4.4 1 .7 1.5 1 .6 0 1.3 0 2-.2a5 5 0 0 0 2.6-1.3c1-.7 1.8-1.5 2.6-2.3.9-.8 1.9-1.6 2.2-2.8.7-2.4-1-4.9-2.5-6.6-1.8-2-4.4-2.1-7-1.5-1.3.3-.7 2.4.6 2 1-.2 2-.3 3-.1.5.1 1 .4 1.5.8.4.3.8.8 1.1 1.3.6.8 1.3 1.8 1.3 3 0 .8-.5 1.3-1.1 1.8l-2.2 2a35.6 35.6 0 0 1-1.5 1.2l-1.2.4a3 3 0 0 1-.9.2c-.2 0-.3-.3-.5-.5l-.2-.3v.1-1c0-.8.2-1.6.5-2.4.4-1.3-1.7-1.9-2.1-.6Z" fill="#182B81"/><path d="m47.6 54.5 1.6-1.9 2.2-2.8 2-2.7 1-1.2.3-.4c.2-.2 0 .1 0 0l.2-.2a1 1 0 0 0-.8-1.9 1 1 0 0 0-.8.4l-3.6 4.8a116 116 0 0 1-3.6 4.3c-1 1 .5 2.5 1.6 1.6Z" fill="#182B81"/><path d="M86.6 91c-1.9-2.2-5.2-3.1-8-3.6a19.8 19.8 0 0 0-9.3.6 915.6 915.6 0 0 0-38.2 8.9l-2.3.5c2.7-5 5.6-10 8.6-15 2-3.3 4-6.7 5.8-10.1 1-2 2.6-3.9 3.4-6a161.3 161.3 0 0 1-5.7-3.5c-2.4-1.4-5-2.8-7.1-4.6a.6.6 0 0 0-.7 0 5 5 0 0 0-.7.2c-.5.4-1 1.2-1.4 1.7a150 150 0 0 0-7.4 9.6l-8.2 12.2-4 6-4.4 6a27.8 27.8 0 0 0-4.8 12c-.6 3.8 0 7.9 2.6 11 1.1 1.2 2.5 2.1 4 2.8a47.4 47.4 0 0 0 10.4 4c2.8.4 5.6.7 8.3.8 5.8.3 11.5 0 17.3.2 4.1 0 8.2.4 12.3.6a60 60 0 0 0 15-1.4.5.5 0 0 0 0-.4l3.1-.5a.6.6 0 0 0 .7.5l.3-.1a115.2 115.2 0 0 0 9.3-10 22 22 0 0 0 3.5-11.7c.3-3.7.2-7.8-2.4-10.7Z" fill="#BCBBE3"/><path d="M53 126c3 0 6-.1 9-.5 3.2-.3 6.3-.9 9.4-1.5a1 1 0 0 0 .7-1.3 1.1 1.1 0 0 0-1.3-.8c-3 .6-5.9 1.2-8.9 1.5-3 .3-6 .4-9 .5-1.3 0-1.3 2.2 0 2.2Zm-32.9-25.2c1.6-.6 3-1.3 4.7-1.8 1.5-.6 3.2-1.1 4.9-1.6 1.3-.5.7-2.6-.6-2.1l-5 1.6a103 103 0 0 0-5 2 1 1 0 0 0-.4 1.6 1.1 1.1 0 0 0 1.4.3ZM33 59.1c4.2 2.2 8.4 4.5 12.5 7 1.2.8 2.3-1 1-1.8-4-2.6-8.2-4.9-12.5-7-1.2-.7-2.3 1.2-1 1.8Zm-4.2 3.8c4.3 3.1 8.8 6 13.4 8.7 1.2.7 2.3-1.1 1.1-1.8-4.6-2.7-9-5.6-13.4-8.8a1 1 0 0 0-1.5.4 1 1 0 0 0 .4 1.5Zm58.5 24.2 3 1 5 2a132.7 132.7 0 0 1 18.3 9.3c.2 0 .5-.2.6-.5a1 1 0 0 0-.4-1.4 139.6 139.6 0 0 0-26-12.4c-1.3-.3-1.9 1.7-.5 2ZM15.2 21.7 28 33.4c1 .9 2.5-.6 1.5-1.6L16.7 20.2c-1-1-2.5.5-1.5 1.5Zm103.1 6.5c3.8-4.2 7.6-8.5 11.8-12.3 1-1-.5-2.5-1.5-1.5-4.2 3.8-8 8-11.9 12.2-1 1 .6 2.6 1.6 1.6Zm-91 124.1-12.9 12.9c-1 1 .6 2.5 1.6 1.5l12.9-12.9c1-1-.6-2.5-1.6-1.5ZM117 151a50 50 0 0 1 6 5.5l5.7 6c1 .9 2.5-.7 1.5-1.6-4-4-7.6-8.5-12.1-11.9a1 1 0 0 0-1.5.4 1.1 1.1 0 0 0 .4 1.5Z" fill="#182B81"/><path d="M125.2 128.5c-6.7-.4-14.1-.1-19.9-4a12 12 0 0 1-4.1-6 62 62 0 0 1-3.2-16.2.6.6 0 0 0-.5-.1.7.7 0 0 0-.9.7l-1 11c-.3 2.8-.8 5.8-2 8.3-.8 1.6-1.9 3-3.2 4.2a17.2 17.2 0 0 1-8 2.9l-12.7 1.6c-.9.1-.6 1.4.2 1.5a135.8 135.8 0 0 1 17.9 2.6 9.8 9.8 0 0 1 5.6 5c1.6 3.4 2.2 7.2 3 10.8.6 2.7 1.3 5.4 1.7 8.2.1.9 1.4.6 1.5-.2l.7-9c.2-2.5.6-5 1.2-7.3.4-1.6 1-3 1.8-4.5.5-1 1-2 2-2.6 2.2-1.5 5-2 7.7-2.7 4-1 8.2-1.6 12.3-2.7a.8.8 0 0 0 .6-.8.8.8 0 0 0-.7-.7Z" fill="#F9D78A"/><path d="M90 102.2c-3-.2-6.7.4-9.2-1.7-.8-.6-1.2-1.7-1.5-2.7-.3-1.3-.6-2.5-.7-3.8a40.2 40.2 0 0 1-.6-3.9.7.7 0 0 0-.5-.2.7.7 0 0 0-.8.8c-.3 3.2 0 7.1-2 9.9-.9 1.1-2.3 1.5-3.6 1.8-2 .4-4.2.6-6.4.9h-.2c-.9.1-.6 1.4.2 1.5l4.7.2c1.4.1 3 0 4.2.7 1.2.6 1.8 1.7 2.2 2.8l1 2.3.3 2.5.2 1.3v1.8a.8.8 0 0 0 .8.8.8.8 0 0 0 .8-.8v-1.6c0-2.4 0-4.7 1.4-6.8 1-1.5 2.4-2.6 4.2-3 1.9-.6 3.9-.8 5.8-1.3.8-.2.6-1.5-.3-1.5Z" fill="#EDEEF6"/><path d="M47.5 137.8c-2.8-.1-6.4.4-8.7-1.5-.8-.6-1.1-1.7-1.4-2.6-.3-1.2-.6-2.3-.7-3.5a39.6 39.6 0 0 1-.5-3.7.6.6 0 0 0-.5-.2.6.6 0 0 0-.6.2.7.7 0 0 0-.2.5c-.2 3 0 6.7-2 9.3-.7 1-2 1.5-3.2 1.7-2 .4-4 .6-6 .8h-.2c-.9.2-.6 1.4.2 1.5l4.3.2c1.3 0 2.8 0 4 .6 1 .4 1.6 1.5 2 2.5l1 2.3a25.3 25.3 0 0 1 .4 4.8l-.1 1a.7.7 0 0 0 .7.7.7.7 0 0 0 .7-.7v-1l.1-.8.2-1.4c0-1.9.2-3.6 1.3-5.2a6.8 6.8 0 0 1 4-2.9c1.7-.5 3.6-.7 5.4-1.1.8-.2.6-1.4-.2-1.5Z" fill="#B5DAED"/><path d="M58 80.1c-1.9-.1-5 .4-5.9-1.7a13.5 13.5 0 0 1-1-5.3.7.7 0 0 0-.7-.4.7.7 0 0 0-.7.4v.3c-.2 2 0 4.3-1.3 5.9-.5.6-1.3.8-2 1l-3.7.5h-.2c-.9 0-.6 1.4.2 1.5l3.4.2c1 0 2 0 2.5 1 .3.4.6.9.7 1.4.3.6.5 1.1.5 1.7v2.7a.8.8 0 0 0 .8.8.8.8 0 0 0 .8-.8V89l.1-1.6c.1-1.1.1-2.2.8-3.2 1.3-2.1 3.7-2 5.9-2.6.9-.2.6-1.5-.2-1.5Z" fill="#F9D78A"/></g><defs><clipPath id="a"><path fill="#fff" transform="translate(2 14)" d="M0 0h142v153H0z"/></clipPath></defs></svg>
