<svg width="24" height="24" viewBox="0 0 24 24" fill="none" xmlns="http://www.w3.org/2000/svg"><path d="M12.9 4C9.42 4 6 6.3 6 10.02c0 2.38 1.37 3.72 2.16 3.72.33 0 .52-.93.52-1.2 0-.26-.8-.97-.8-2.27a4.52 4.52 0 0 1 2.93-4.32 4.6 4.6 0 0 1 1.82-.3c2.3 0 4.02 1.3 4.02 3.69 0 1.79-.73 5.14-3.06 5.14a1.51 1.51 0 0 1-1.44-.9 1.49 1.49 0 0 1-.13-.58c0-1.27.82-2.5.82-3.81 0-2.23-3.1-1.82-3.1.87-.02.58.09 1.17.32 1.7-.46 2-1.32 5.16-1.32 7.25 0 .63.09 1.26.15 1.9.11.12.06.1.23.04 1.71-2.32 1.55-2.98 2.33-6.02a2.73 2.73 0 0 0 2.34 1.21c3.6 0 5.21-3.48 5.21-6.62C19 6.18 16.1 4 12.9 4Z" fill="#fff"/></svg>