<svg xmlns="http://www.w3.org/2000/svg" width="48" height="48" viewBox="0 0 48 48">
    <path data-name="Path 2796" d="m-25 32.232-3.355-6.986a1.5 1.5 0 0 0-2-.7 1.5 1.5 0 0 0-.7 2l.786 1.637h-2.671l-5.573-11.6A5.463 5.463 0 0 0-36.022 12a5.474 5.474 0 0 0-3.966-5.252V6a1.5 1.5 0 0 0-1.5-1.5 1.5 1.5 0 0 0-1.5 1.5v.746A5.474 5.474 0 0 0-46.954 12a5.459 5.459 0 0 0 2.5 4.583l-5.573 11.6h-1.69a1.5 1.5 0 0 0-1.5 1.5 1.5 1.5 0 0 0 1.5 1.5h.249l-4.1 8.532a1.5 1.5 0 0 0 .7 2 1.492 1.492 0 0 0 .649.148 1.5 1.5 0 0 0 1.353-.851l4.722-9.831h5.153v1.5a1.5 1.5 0 0 0 1.5 1.5 1.5 1.5 0 0 0 1.5-1.5v-1.5h5.152l4.723 9.831a1.5 1.5 0 0 0 1.353.851 1.489 1.489 0 0 0 .649-.148 1.5 1.5 0 0 0 .7-2l-4.1-8.532h2.671l1.128 2.349a1.5 1.5 0 0 0 1.354.85 1.5 1.5 0 0 0 .648-.147A1.5 1.5 0 0 0-25 32.232zM-42.983 10.05a1.5 1.5 0 0 0 1.5 1.45 1.5 1.5 0 0 0 1.495-1.449A2.454 2.454 0 0 1-39.022 12a2.469 2.469 0 0 1-2.466 2.465A2.468 2.468 0 0 1-43.954 12a2.458 2.458 0 0 1 .971-1.95zm3 18.132v-1.5a1.5 1.5 0 0 0-1.5-1.5 1.5 1.5 0 0 0-1.5 1.5v1.5H-46.7l5.15-10.722h.123l5.15 10.722z" style="fill:#313c4e" transform="translate(65.488)"/>
</svg>
