<svg xmlns="http://www.w3.org/2000/svg" width="24" height="24" viewBox="0 0 24 24" className="footer__social-link-icon"><path fill-rule="evenodd" clip-rule="evenodd" d="M22.59 19.04c.45-.4.75-.92.87-1.5.32-1.83.5-3.68.54-5.54 0-1.86-.19-3.71-.54-5.54a2.75 2.75 0 0 0-.87-1.5 3.08 3.08 0 0 0-1.64-.74 66.5 66.5 0 0 0-17.96 0c-.61.08-1.19.34-1.64.74-.45.4-.75.92-.87 1.5A30.72 30.72 0 0 0 0 12c0 1.86.15 3.71.48 5.54.12.58.42 1.1.87 1.5.45.4 1.03.66 1.64.74a66.5 66.5 0 0 0 17.96 0 3.08 3.08 0 0 0 1.64-.74ZM16.76 12 9.58 8.08v7.84L16.76 12Z"></path></svg>